<?xml version="1.0" encoding="utf-8"?>
<!-- Generator: Adobe Illustrator 28.0.0, SVG Export Plug-In . SVG Version: 6.00 Build 0)  -->
<svg version="1.1" id="Vrstva_1" xmlns="http://www.w3.org/2000/svg" xmlns:xlink="http://www.w3.org/1999/xlink" x="0px" y="0px"
	 viewBox="0 0 21 20" style="enable-background:new 0 0 21 20;" xml:space="preserve">
<style type="text/css">
	.st0{clip-path:url(#SVGID_00000065049680590782039170000005963429260461041575_);}
	.st1{fill:#FFFFFF;}
</style>
<g>
	<defs>
		<rect id="SVGID_1_" x="0.5" width="20" height="20"/>
	</defs>
	<clipPath id="SVGID_00000182488724983256002990000014470974185336143241_">
		<use xlink:href="#SVGID_1_"  style="overflow:visible;"/>
	</clipPath>
	<g style="clip-path:url(#SVGID_00000182488724983256002990000014470974185336143241_);">
		<path class="st1" d="M10.5,1.8c2.7,0,3,0,4,0.1c1,0,1.5,0.2,1.9,0.3c0.5,0.2,0.8,0.4,1.1,0.7c0.4,0.4,0.6,0.7,0.7,1.1
			C18.4,4.4,18.6,5,18.6,6c0,1.1,0.1,1.4,0.1,4c0,2.7,0,3-0.1,4c0,1-0.2,1.5-0.3,1.9c-0.2,0.5-0.4,0.8-0.7,1.1
			c-0.4,0.4-0.7,0.6-1.1,0.7c-0.4,0.1-0.9,0.3-1.9,0.3c-1.1,0-1.4,0.1-4,0.1c-2.7,0-3,0-4-0.1c-1,0-1.5-0.2-1.9-0.3
			c-0.5-0.2-0.8-0.4-1.1-0.7c-0.4-0.4-0.6-0.7-0.7-1.1C2.6,15.5,2.4,15,2.4,14c0-1.1-0.1-1.4-0.1-4c0-2.7,0-3,0.1-4
			c0-1,0.2-1.5,0.3-1.9c0.2-0.5,0.4-0.8,0.7-1.1c0.4-0.4,0.7-0.6,1.1-0.7C5,2.1,5.5,1.9,6.5,1.9C7.5,1.8,7.8,1.8,10.5,1.8z M10.5,0
			C7.8,0,7.4,0,6.4,0.1C5.3,0.1,4.6,0.3,4,0.5C3.3,0.8,2.7,1.1,2.2,1.7C1.6,2.2,1.3,2.8,1,3.4C0.8,4.1,0.6,4.8,0.6,5.9
			c0,1.1-0.1,1.4-0.1,4.1c0,2.7,0,3.1,0.1,4.1c0,1.1,0.2,1.8,0.5,2.4c0.3,0.7,0.6,1.2,1.2,1.8c0.6,0.6,1.1,0.9,1.8,1.2
			c0.6,0.2,1.4,0.4,2.4,0.5c1.1,0,1.4,0.1,4.1,0.1c2.7,0,3.1,0,4.1-0.1c1.1,0,1.8-0.2,2.4-0.5c0.7-0.3,1.2-0.6,1.8-1.2
			c0.6-0.6,0.9-1.1,1.2-1.8c0.2-0.6,0.4-1.4,0.5-2.4c0-1.1,0.1-1.4,0.1-4.1c0-2.7,0-3.1-0.1-4.1c0-1.1-0.2-1.8-0.5-2.4
			c-0.2-0.7-0.6-1.2-1.1-1.8c-0.6-0.6-1.1-0.9-1.8-1.2c-0.6-0.2-1.4-0.4-2.4-0.5C13.6,0,13.2,0,10.5,0z"/>
		<path class="st1" d="M10.5,4.9c-2.8,0-5.1,2.3-5.1,5.1c0,2.8,2.3,5.1,5.1,5.1c2.8,0,5.1-2.3,5.1-5.1C15.6,7.2,13.3,4.9,10.5,4.9z
			 M10.5,13.3c-1.8,0-3.3-1.5-3.3-3.3c0-1.8,1.5-3.3,3.3-3.3c1.8,0,3.3,1.5,3.3,3.3C13.8,11.8,12.3,13.3,10.5,13.3z"/>
		<path class="st1" d="M17,4.7c0,0.7-0.5,1.2-1.2,1.2c-0.7,0-1.2-0.5-1.2-1.2c0-0.7,0.5-1.2,1.2-1.2C16.5,3.5,17,4,17,4.7z"/>
	</g>
</g>
</svg>
