<svg width="32" height="32" viewBox="0 0 32 32" fill="none" xmlns="http://www.w3.org/2000/svg">
<path d="M1.14936 30.1449C1.09462 30.0918 1.06689 30.0253 1.06689 29.9467V24.9514C1.06689 24.87 1.09391 24.8034 1.14723 24.751C1.20055 24.6994 1.26738 24.6732 1.34629 24.6732H2.97151C3.25375 24.6732 3.51751 24.7213 3.76279 24.8183C4.00806 24.9153 4.22134 25.052 4.40192 25.229C4.57966 25.4031 4.71829 25.6127 4.81853 25.857C4.91878 26.1013 4.96854 26.3583 4.96854 26.6288V28.2941C4.96854 28.561 4.91949 28.8124 4.82067 29.0489C4.72185 29.2846 4.5825 29.49 4.40192 29.6642C4.22134 29.8412 4.00806 29.9792 3.76279 30.0769C3.51751 30.1754 3.25375 30.2242 2.97151 30.2242H1.34629C1.27022 30.2242 1.20482 30.1973 1.14936 30.1442V30.1449ZM2.97151 29.6642C3.18052 29.6642 3.3739 29.6287 3.55164 29.5587C3.72937 29.4886 3.88294 29.3901 4.01304 29.2634C4.1403 29.1395 4.23698 28.9958 4.3031 28.8315C4.36922 28.6672 4.40263 28.4895 4.40263 28.2983V26.6245C4.40263 26.4362 4.36851 26.2549 4.30097 26.0807C4.23343 25.9066 4.13745 25.7579 4.01304 25.634C3.88294 25.5072 3.73008 25.4102 3.55377 25.3408C3.37746 25.2722 3.18337 25.2375 2.97151 25.2375H1.63423V29.6634H2.97151V29.6642Z" fill="white"/>
<path d="M6.78799 30.1152C6.5356 30.0083 6.3145 29.861 6.12539 29.6727C5.93344 29.4843 5.78414 29.2648 5.67679 29.0128C5.56943 28.7614 5.51611 28.4966 5.51611 28.2183C5.51611 27.9401 5.56943 27.6753 5.67679 27.4239C5.78414 27.1726 5.93344 26.9509 6.12539 26.7598C6.3145 26.5714 6.53489 26.4242 6.78799 26.3172C7.04037 26.2103 7.30626 26.1572 7.58566 26.1572C7.86506 26.1572 8.12669 26.2103 8.37908 26.3172C8.63146 26.4242 8.85399 26.5714 9.04594 26.7598C9.23505 26.9481 9.38364 27.1676 9.49241 27.4175C9.60118 27.6675 9.65664 27.9302 9.65948 28.2056C9.65948 28.2814 9.63389 28.3451 9.58341 28.3975C9.53222 28.4499 9.46611 28.4754 9.38435 28.4754H6.14174C6.16449 28.6495 6.2171 28.8131 6.30028 28.9667C6.38346 29.1197 6.4901 29.2542 6.62021 29.3696C6.75315 29.485 6.90174 29.5749 7.06668 29.6394C7.23162 29.7038 7.40437 29.7364 7.58495 29.7364C7.75416 29.7364 7.89279 29.7208 7.99943 29.6904C8.09541 29.6649 8.20845 29.616 8.33784 29.5431C8.39401 29.5091 8.4523 29.4928 8.51131 29.4928C8.58738 29.4928 8.65208 29.5233 8.70611 29.5834C8.75943 29.6436 8.78645 29.7123 8.78645 29.7881C8.78645 29.8893 8.74094 29.9651 8.65066 30.0161C8.48714 30.1088 8.33286 30.1732 8.18925 30.2101C8.00868 30.2547 7.80677 30.2773 7.58424 30.2773C7.30484 30.2773 7.03895 30.2242 6.78657 30.1173L6.78799 30.1152ZM9.08433 28.0031C9.06158 27.8176 9.00897 27.6455 8.92579 27.4869C8.84261 27.3283 8.73312 27.1896 8.59805 27.072C8.46226 26.9538 8.30869 26.8617 8.13664 26.7959C7.9646 26.73 7.78402 26.6968 7.59491 26.6968C7.4058 26.6968 7.22166 26.7307 7.05104 26.798C6.88041 26.8653 6.72827 26.9594 6.59603 27.0805C6.46593 27.1988 6.36071 27.3375 6.27824 27.4976C6.19648 27.6576 6.1453 27.8261 6.1261 28.0031H9.08504H9.08433Z" fill="white"/>
<path d="M10.1526 30.1449C10.1028 30.0918 10.0786 30.0224 10.0786 29.9381C10.0786 29.8539 10.1035 29.7909 10.1526 29.7399C10.2016 29.6896 10.2649 29.6641 10.341 29.6641H12.1311C12.21 29.6641 12.2889 29.6493 12.3678 29.6195C12.4468 29.5898 12.5157 29.5473 12.5754 29.4907C12.7134 29.3618 12.783 29.2067 12.783 29.0269C12.783 28.8471 12.7169 28.7012 12.584 28.5886C12.525 28.5383 12.4546 28.4994 12.3742 28.4725C12.2939 28.4456 12.2114 28.4307 12.1268 28.4279H11.2929C11.1351 28.4279 10.9858 28.3967 10.8464 28.3351C10.7071 28.2735 10.5848 28.1893 10.4803 28.0824C10.3758 27.9755 10.2955 27.853 10.2393 27.7135C10.1831 27.5747 10.1547 27.4274 10.1547 27.2731C10.1547 27.1187 10.1845 26.9778 10.2436 26.8433C10.3026 26.7088 10.3843 26.5891 10.4888 26.485C10.5933 26.3809 10.7142 26.3002 10.8528 26.2429C10.9908 26.1855 11.1379 26.1565 11.2929 26.1565H12.8378C12.9195 26.1565 12.9871 26.1813 13.0411 26.2301C13.0944 26.279 13.1214 26.3462 13.1214 26.4305C13.1214 26.5148 13.0944 26.5877 13.0411 26.6415C12.9878 26.6946 12.9195 26.7215 12.8378 26.7215H11.2886C11.1337 26.7215 10.9979 26.7789 10.882 26.8943C10.8315 26.9474 10.791 27.009 10.7611 27.0777C10.7313 27.1463 10.7163 27.2171 10.7163 27.2908C10.7163 27.3644 10.7313 27.4395 10.7611 27.5103C10.791 27.5804 10.8322 27.6413 10.8862 27.6915C10.9367 27.7446 10.9979 27.7871 11.0682 27.8183C11.1386 27.8494 11.2119 27.8643 11.2886 27.8643H12.173C12.3366 27.8643 12.4908 27.8947 12.6344 27.9549C12.7781 28.0151 12.9039 28.1001 13.0112 28.2098C13.1186 28.3196 13.2011 28.4456 13.2587 28.5893C13.3162 28.7324 13.3454 28.8832 13.3454 29.0404C13.3454 29.1975 13.3162 29.3484 13.2587 29.4914C13.2011 29.6344 13.1193 29.7611 13.0155 29.8709C12.9082 29.9835 12.783 30.0706 12.6408 30.1322C12.4979 30.1938 12.3451 30.2249 12.1816 30.2249H10.3402C10.2642 30.2249 10.2009 30.198 10.1518 30.1449H10.1526Z" fill="white"/>
<path d="M14.0447 25.4846C13.98 25.4188 13.9473 25.3395 13.9473 25.2467C13.9473 25.1539 13.98 25.0711 14.0447 25.0067C14.1094 24.9422 14.1897 24.9097 14.2857 24.9097C14.3817 24.9097 14.4627 24.9422 14.5288 25.0067C14.5949 25.0711 14.6283 25.1511 14.6283 25.2467C14.6283 25.3423 14.5949 25.4188 14.5288 25.4846C14.4627 25.5504 14.3817 25.5837 14.2857 25.5837C14.1897 25.5837 14.1094 25.5504 14.0447 25.4846ZM14.0831 30.1641C14.0269 30.1095 13.9985 30.0423 13.9985 29.9637V26.444C13.9985 26.3626 14.0269 26.2946 14.0831 26.2394C14.1392 26.1849 14.2075 26.1572 14.2864 26.1572C14.3653 26.1572 14.435 26.1849 14.4876 26.2394C14.5395 26.2939 14.5658 26.3626 14.5658 26.444V29.9637C14.5658 30.0423 14.5381 30.1088 14.4833 30.1641C14.4286 30.2193 14.3625 30.2462 14.2864 30.2462C14.2103 30.2462 14.1399 30.2186 14.0831 30.1641Z" fill="white"/>
<path d="M16.0086 31.9179C15.9468 31.8634 15.9155 31.7975 15.9155 31.7218C15.9155 31.5589 16.0548 31.4322 16.3342 31.3422C16.4359 31.3083 16.544 31.2842 16.6577 31.2686C16.7722 31.253 16.8703 31.2452 16.9521 31.2452C17.0679 31.2452 17.1817 31.2495 17.2947 31.258C17.4106 31.2665 17.5244 31.2707 17.6374 31.2707C17.9787 31.2707 18.2438 31.1907 18.4329 31.0307C18.6221 30.8707 18.7166 30.6427 18.7166 30.3474C18.7166 30.2207 18.6996 30.1103 18.6661 30.0147C18.6405 29.9531 18.6043 29.8879 18.5559 29.8207C18.3754 29.9665 18.1735 30.0791 17.9509 30.1577C17.7277 30.2363 17.4952 30.2759 17.2528 30.2759C16.9734 30.2759 16.7089 30.2235 16.4594 30.118C16.2098 30.0125 15.9887 29.8646 15.7968 29.6734C15.6048 29.4851 15.4555 29.2663 15.3482 29.0156C15.2408 28.7657 15.1875 28.5016 15.1875 28.2233C15.1875 27.9451 15.2408 27.6753 15.3482 27.4225C15.4555 27.1698 15.6048 26.9488 15.7968 26.7605C15.9887 26.5693 16.2091 26.4214 16.4594 26.3159C16.7089 26.2104 16.9734 26.158 17.2528 26.158C17.5322 26.158 17.8023 26.2111 18.0547 26.318C18.3071 26.4249 18.5282 26.5722 18.7173 26.7605C18.9064 26.9517 19.0536 27.1733 19.1595 27.4246C19.2655 27.676 19.3181 27.9422 19.3181 28.2233C19.3181 28.6503 19.1937 29.0411 18.9455 29.3951C19.0614 29.519 19.1453 29.6585 19.1972 29.8143C19.2491 29.9701 19.2754 30.1478 19.2754 30.3474C19.2754 30.5776 19.2363 30.785 19.1588 30.9691C19.0813 31.1532 18.9718 31.3111 18.8311 31.4435C18.6981 31.5674 18.5446 31.663 18.3697 31.7303C18.1948 31.7975 18.0128 31.8329 17.8237 31.8358C17.6964 31.8358 17.5613 31.823 17.417 31.7975C17.2592 31.7749 17.1163 31.7635 16.9897 31.7635C16.8938 31.7635 16.7964 31.7749 16.6975 31.7975C16.5731 31.8258 16.4686 31.8719 16.384 31.9363C16.3307 31.9788 16.2738 31.9993 16.2148 31.9993C16.1387 31.9993 16.0698 31.9717 16.0072 31.9172L16.0086 31.9179ZM17.8414 29.599C18.0249 29.5219 18.1855 29.4128 18.3242 29.2726C18.4621 29.1353 18.5694 28.9753 18.6455 28.794C18.7216 28.6127 18.76 28.4223 18.76 28.2226C18.76 28.0229 18.7216 27.8275 18.6455 27.6448C18.5694 27.4622 18.4621 27.3022 18.3242 27.1641C18.1863 27.0267 18.0242 26.9191 17.8393 26.8419C17.6545 26.7648 17.459 26.7258 17.2528 26.7258C17.0466 26.7258 16.8525 26.7648 16.6705 26.8419C16.4885 26.9191 16.3286 27.0267 16.1899 27.1641C16.052 27.3022 15.9439 27.4622 15.8664 27.6448C15.789 27.8275 15.7499 28.0201 15.7499 28.2226C15.7499 28.4251 15.7882 28.6127 15.8664 28.794C15.9439 28.9753 16.052 29.1346 16.1899 29.2726C16.3279 29.4135 16.4885 29.5219 16.6705 29.599C16.8525 29.6762 17.0466 29.7152 17.2528 29.7152C17.459 29.7152 17.6573 29.6762 17.8414 29.599Z" fill="white"/>
<path d="M19.9134 30.1449C19.8558 30.0918 19.8267 30.0253 19.8267 29.9467V28.1341C19.8267 27.8672 19.8743 27.613 19.9703 27.3708C20.0662 27.1294 20.2013 26.917 20.3769 26.7343C20.5518 26.5516 20.7573 26.41 20.9926 26.3087C21.2279 26.2075 21.4803 26.1572 21.7483 26.1572C22.0164 26.1572 22.2673 26.2075 22.5019 26.3087C22.7358 26.41 22.9406 26.5502 23.1155 26.73C23.2875 26.9127 23.4212 27.1244 23.5157 27.3644C23.6103 27.6045 23.6572 27.8601 23.6572 28.1298V29.9467C23.6572 30.0281 23.6309 30.0947 23.579 30.147C23.5271 30.1994 23.4596 30.2249 23.3778 30.2249C23.2961 30.2249 23.2321 30.1987 23.1766 30.147C23.1219 30.0954 23.0941 30.0281 23.0941 29.9467V28.1511C23.0941 27.9571 23.0607 27.773 22.9946 27.5988C22.9285 27.4246 22.8361 27.2731 22.7173 27.1435C22.5929 27.0111 22.4486 26.9092 22.2837 26.8355C22.1187 26.7626 21.9403 26.7258 21.7483 26.7258C21.5564 26.7258 21.3779 26.7619 21.213 26.8334C21.0481 26.9049 20.903 27.0055 20.7793 27.135C20.6578 27.2618 20.5632 27.4119 20.4957 27.5861C20.4281 27.7602 20.394 27.9443 20.394 28.1383V29.9467C20.394 30.0281 20.3684 30.0947 20.3179 30.147C20.2674 30.1994 20.2006 30.2249 20.1189 30.2249C20.0371 30.2249 19.9717 30.198 19.9134 30.1449Z" fill="white"/>
<path d="M25.5413 30.1173C25.2931 30.0118 25.0742 29.8638 24.8851 29.6727C24.6959 29.4843 24.5495 29.2655 24.445 29.0149C24.3405 28.7649 24.2886 28.5008 24.2886 28.2226C24.2886 27.9443 24.3405 27.6753 24.445 27.4239C24.5495 27.1726 24.6959 26.9509 24.8851 26.7598C25.0742 26.5686 25.2931 26.4206 25.5413 26.3151C25.7894 26.2096 26.0531 26.1572 26.3325 26.1572C26.6119 26.1572 26.88 26.2096 27.1281 26.3151C27.3762 26.4206 27.5952 26.5686 27.7843 26.7598C27.9705 26.9481 28.1156 27.169 28.2201 27.4218C28.3246 27.6746 28.3765 27.9415 28.3765 28.2226V29.9552C28.3765 30.0366 28.3481 30.1053 28.2919 30.1619C28.2357 30.2179 28.166 30.2462 28.0843 30.2462C28.0025 30.2462 27.9364 30.2186 27.8852 30.164C27.834 30.1095 27.8092 30.0394 27.8092 29.9552L27.8049 29.6514C27.6129 29.8511 27.3925 30.0047 27.1423 30.1131C26.8928 30.2214 26.6226 30.2752 26.3318 30.2752C26.041 30.2752 25.7887 30.2228 25.5405 30.1173H25.5413ZM26.9191 29.599C27.1011 29.5218 27.2582 29.4128 27.3911 29.2726C27.5241 29.1353 27.6264 28.9752 27.7004 28.794C27.7736 28.6127 27.8106 28.4223 27.8106 28.2226C27.8106 28.0229 27.7736 27.8268 27.7004 27.6427C27.6272 27.4586 27.5241 27.2993 27.3911 27.1641C27.2553 27.0267 27.0975 26.9191 26.9169 26.8419C26.7363 26.7647 26.5415 26.7258 26.3325 26.7258C26.1235 26.7258 25.9337 26.7647 25.7545 26.8419C25.5754 26.9191 25.4183 27.0267 25.2825 27.1641C25.1467 27.3021 25.0422 27.4622 24.9668 27.6448C24.8922 27.8275 24.8545 28.0201 24.8545 28.2226C24.8545 28.4251 24.8922 28.6127 24.9668 28.794C25.0415 28.9752 25.1467 29.1345 25.2825 29.2726C25.4183 29.4135 25.5754 29.5218 25.7545 29.599C25.9337 29.6762 26.1264 29.7151 26.3325 29.7151C26.5387 29.7151 26.7371 29.6762 26.9191 29.599Z" fill="white"/>
<path d="M30.8576 30.1534C30.8071 30.2037 30.7402 30.2292 30.6585 30.2292H30.65C30.4523 30.2292 30.2703 30.1952 30.104 30.1279C29.9376 30.0607 29.7904 29.9637 29.6639 29.8369C29.5366 29.7102 29.4392 29.5594 29.3717 29.3838C29.3041 29.2082 29.27 29.0135 29.27 28.7996V24.9847C29.27 24.9033 29.2963 24.8353 29.3482 24.7801C29.4001 24.7256 29.4662 24.6979 29.5452 24.6979C29.6241 24.6979 29.6916 24.7256 29.7485 24.7801C29.8046 24.8346 29.8331 24.9033 29.8331 24.9847V28.7911C29.8331 29.0666 29.9035 29.2818 30.0449 29.4362C30.1857 29.5905 30.3819 29.6705 30.6336 29.6762H30.6549C30.7367 29.6762 30.8035 29.7031 30.8561 29.7562C30.908 29.8093 30.9343 29.8759 30.9343 29.9544C30.9343 30.033 30.9087 30.1017 30.8583 30.1527L30.8576 30.1534Z" fill="white"/>
<path d="M18.4261 17.9142C18.3273 17.9142 18.2277 17.9078 18.1282 17.8958C17.4116 17.8066 16.7831 17.4044 16.4042 16.7919L16.353 16.7091C15.7679 15.7639 15.9221 14.5545 16.7283 13.7679C17.745 12.7759 18.3045 11.4519 18.3045 10.0393C18.3045 8.62679 17.745 7.30204 16.7283 6.31007C15.9221 5.52344 15.7679 4.31339 16.353 3.36815L16.4042 3.28602C16.7831 2.67356 17.4116 2.27139 18.1282 2.18218C18.8462 2.09297 19.5558 2.32945 20.0755 2.83146C22.0512 4.73892 23.1389 7.29921 23.1389 10.0393C23.1389 12.7795 22.0512 15.339 20.0755 17.2465C19.6283 17.6784 19.0396 17.9142 18.4261 17.9142ZM18.4239 3.57986C18.3841 3.57986 18.3443 3.58198 18.3045 3.58694C18.0173 3.62234 17.7663 3.78377 17.6142 4.02876L17.563 4.11089C17.3291 4.48899 17.3945 4.97753 17.723 5.29828C19.0147 6.55859 19.7257 8.24232 19.7257 10.0386C19.7257 11.8349 19.014 13.5179 17.723 14.779C17.3945 15.0997 17.3284 15.5876 17.563 15.9657L17.6142 16.0485C17.7656 16.2935 18.0173 16.4542 18.3038 16.4903C18.5917 16.5264 18.8768 16.4308 19.0851 16.2298C20.7821 14.5913 21.7163 12.3922 21.7163 10.0393C21.7163 7.68651 20.7821 5.48662 19.0851 3.84821C18.9053 3.67474 18.6692 3.57986 18.4232 3.57986H18.4239ZM14.7683 12.7972C15.7366 12.201 16.3146 11.1694 16.3146 10.0393C16.3146 8.9093 15.7366 7.87697 14.7683 7.2808C14.4341 7.07476 13.9962 7.17813 13.7893 7.5102C13.5824 7.84298 13.6862 8.27914 14.0197 8.48518C14.5657 8.8215 14.892 9.4028 14.892 10.04C14.892 10.6773 14.5657 11.2572 14.0197 11.5942C13.6855 11.8002 13.5824 12.2364 13.7893 12.5685C13.9237 12.7851 14.1562 12.9041 14.3943 12.9041C14.5223 12.9041 14.651 12.8701 14.7676 12.7979L14.7683 12.7972Z" fill="#9063CD"/>
<path d="M12.9503 20.078C12.9418 20.078 12.9333 20.078 12.9247 20.078C12.1562 20.0758 11.3891 19.9873 10.6455 19.8146C10.263 19.7254 10.0255 19.3451 10.1151 18.9642C10.2047 18.5833 10.5864 18.3468 10.9689 18.436C11.6152 18.5861 12.2813 18.6626 12.9503 18.6626C12.9574 18.6626 12.9645 18.6626 12.9717 18.6626C13.7544 18.6583 14.5293 18.55 15.2758 18.3411C15.6533 18.2356 16.0465 18.4544 16.1524 18.8311C16.2591 19.2078 16.0387 19.5986 15.6604 19.7041C14.7831 19.9498 13.8724 20.0758 12.9532 20.0787H12.951L12.9503 20.078Z" fill="#DABDFF"/>
<path d="M15.4692 1.76515C15.4052 1.76515 15.3405 1.75665 15.2758 1.73825C14.53 1.52866 13.7544 1.42033 12.9695 1.41609C12.9631 1.41609 12.9567 1.41609 12.9503 1.41609C12.282 1.41609 11.6151 1.49255 10.9689 1.64266C10.5864 1.73116 10.2039 1.49468 10.1151 1.11446C10.0255 0.733532 10.2636 0.352605 10.6454 0.2641C11.3905 0.0906295 12.1583 0.00212413 12.9275 0C12.9361 0 12.9439 0 12.9531 0C13.8745 0.00283217 14.7852 0.129572 15.6618 0.375971C16.04 0.482177 16.2597 0.873017 16.1531 1.2497C16.0649 1.56194 15.7791 1.76586 15.4692 1.76586V1.76515Z" fill="#DABDFF"/>
<path d="M12.0901 4.90462C12.1775 4.88762 12.2578 4.87488 12.3389 4.86426C12.5458 4.83594 12.7548 4.81965 12.9631 4.8154H12.9716C13.1415 4.8154 13.3136 4.82602 13.4821 4.84443C13.5084 4.84726 13.5347 4.84868 13.5603 4.84868C13.5838 4.84868 13.6072 4.84726 13.6307 4.84514C13.9577 4.81257 14.2293 4.55626 14.2663 4.21781C14.3096 3.8291 14.0281 3.47933 13.6378 3.43684C13.4224 3.41348 13.2034 3.40073 12.9866 3.40002C12.9745 3.40002 12.9624 3.40002 12.9503 3.40002C12.9332 3.40002 12.9169 3.40002 12.9005 3.40215C12.6474 3.40781 12.3951 3.42764 12.1469 3.46162C12.0431 3.47508 11.9379 3.49278 11.8256 3.51402C11.4396 3.58624 11.1865 3.95655 11.259 4.34101C11.3322 4.72548 11.704 4.97754 12.0901 4.90532V4.90462Z" fill="#DABDFF"/>
<path d="M13.6259 15.2321C13.5783 15.2279 13.5299 15.2279 13.4809 15.2335C13.3181 15.2512 13.1517 15.2612 12.9861 15.2619C12.7699 15.259 12.5538 15.2442 12.3412 15.2151C12.2566 15.2031 12.172 15.1889 12.0896 15.1734C11.7035 15.1011 11.3317 15.3532 11.2592 15.7377C11.186 16.1221 11.4391 16.4924 11.8251 16.5647C11.9289 16.5845 12.0355 16.6022 12.1464 16.6178C12.4003 16.6525 12.6576 16.6723 12.9121 16.6779C12.9249 16.6779 12.9377 16.6779 12.9505 16.6779C13.1802 16.6779 13.4112 16.6652 13.6373 16.6404C14.0276 16.5972 14.3091 16.2475 14.2658 15.8587C14.2281 15.5189 13.9558 15.2626 13.6259 15.2314V15.2321Z" fill="#DABDFF"/>
</svg>
