<?xml version="1.0" encoding="UTF-8"?><svg id="Vrstva_2" xmlns="http://www.w3.org/2000/svg" viewBox="0 0 183.45 283.57"><defs><style>.cls-1{fill:#fff;stroke-width:0px;}</style></defs><g id="Vrstva_1-2"><path class="cls-1" d="m117.16,253.01c-1.39,0-2.79-.09-4.19-.26-10.08-1.26-18.92-6.94-24.25-15.59l-.72-1.17c-8.23-13.35-6.06-30.43,5.28-41.54,14.3-14.01,22.17-32.71,22.17-52.66s-7.87-38.66-22.17-52.67c-11.34-11.11-13.51-28.2-5.28-41.55l.72-1.16c5.33-8.65,14.17-14.33,24.25-15.59,10.1-1.26,20.08,2.08,27.39,9.17,27.79,26.94,43.09,63.1,43.09,101.8s-15.3,74.85-43.09,101.79c-6.29,6.1-14.57,9.43-23.2,9.43Zm-.03-202.45c-.56,0-1.12.03-1.68.1-4.04.5-7.57,2.78-9.71,6.24l-.72,1.16c-3.29,5.34-2.37,12.24,2.25,16.77,18.17,17.8,28.17,41.58,28.17,66.95s-10.01,49.14-28.17,66.95c-4.62,4.53-5.55,11.42-2.25,16.76h0l.72,1.17c2.13,3.46,5.67,5.73,9.7,6.24,4.05.51,8.06-.84,10.99-3.68,23.87-23.14,37.01-54.2,37.01-87.43s-13.14-64.3-37.01-87.44c-2.53-2.45-5.85-3.79-9.31-3.79Zm-51.42,130.18c13.62-8.42,21.75-22.99,21.75-38.95s-8.13-30.54-21.75-38.96c-4.7-2.91-10.86-1.45-13.77,3.24-2.91,4.7-1.45,10.86,3.24,13.77,7.68,4.75,12.27,12.96,12.27,21.96s-4.59,17.19-12.27,21.95c-4.7,2.91-6.15,9.07-3.24,13.76,1.89,3.06,5.16,4.74,8.51,4.74,1.8,0,3.61-.48,5.25-1.5Z"/><path class="cls-1" d="m40.14,283.57c-.12,0-.24,0-.36,0-10.81-.03-21.6-1.28-32.06-3.72-5.38-1.26-8.72-6.63-7.46-12.01,1.26-5.38,6.63-8.72,12.01-7.46,9.09,2.12,18.46,3.2,27.87,3.2.1,0,.2,0,.3,0,11.01-.06,21.91-1.59,32.41-4.54,5.31-1.49,10.84,1.6,12.33,6.92,1.5,5.32-1.6,10.84-6.92,12.33-12.34,3.47-25.15,5.25-38.08,5.29h-.03Z"/><path class="cls-1" d="m75.57,24.93c-.9,0-1.81-.12-2.72-.38-10.49-2.96-21.4-4.49-32.44-4.55-.09,0-.18,0-.27,0-9.4,0-18.78,1.08-27.87,3.2-5.38,1.25-10.76-2.09-12.01-7.46C-.99,10.36,2.35,4.98,7.73,3.73,18.2,1.28,29,.03,39.82,0c.12,0,.23,0,.36,0,12.96.04,25.77,1.83,38.1,5.31,5.32,1.5,8.41,7.02,6.91,12.34-1.24,4.41-5.26,7.29-9.62,7.29Z"/><path class="cls-1" d="m28.04,69.27c1.23-.24,2.36-.42,3.5-.57,2.91-.4,5.85-.63,8.78-.69h.12c2.39,0,4.81.15,7.18.41.37.04.74.06,1.1.06.33,0,.66-.02.99-.05,4.6-.46,8.42-4.08,8.94-8.86.61-5.49-3.35-10.43-8.84-11.03-3.03-.33-6.11-.51-9.16-.52-.17,0-.34,0-.51,0-.24,0-.47,0-.7.03-3.56.08-7.11.36-10.6.84-1.46.19-2.94.44-4.52.74-5.43,1.02-8.99,6.25-7.97,11.68,1.03,5.43,6.26,8.99,11.69,7.97Z"/><path class="cls-1" d="m49.64,215.13c-.67-.06-1.35-.06-2.04.02-2.29.25-4.63.39-6.96.4-3.04-.04-6.08-.25-9.07-.66-1.19-.17-2.38-.37-3.54-.59-5.43-1.02-10.66,2.54-11.68,7.97-1.03,5.43,2.53,10.66,7.96,11.68,1.46.28,2.96.53,4.52.75,3.57.49,7.19.77,10.77.85.18,0,.36,0,.54,0,3.23,0,6.48-.18,9.66-.53,5.49-.61,9.45-5.55,8.84-11.04-.53-4.8-4.36-8.42-9-8.86Z"/></g></svg>