<svg width="50" height="50" viewBox="0 0 50 50" fill="none" xmlns="http://www.w3.org/2000/svg">
<path d="M32.52 20.24L29.62 29.38C29.62 28.68 27.62 13.52 27.62 13.52C23.02 13.52 20.58 16.78 19.3 20.24L15.76 29.4C15.76 28.74 15.26 20.32 15.26 20.32C15.0892 18.4973 14.256 16.8004 12.918 15.5509C11.58 14.3013 9.83016 13.5859 8 13.54L11.76 36.5C16.56 36.5 19.16 33.24 20.5 29.78L23.5 21.98C23.5 22.3 25.5 36.5 25.5 36.5C27.4628 36.4975 29.3738 35.87 30.956 34.7085C32.5382 33.547 33.7095 31.9119 34.3 30.04L41.1 13.52C36.3 13.52 33.78 16.78 32.5 20.24H32.52Z" fill="white"/>
</svg>
