<?xml version="1.0" encoding="utf-8"?>
<!-- Generator: Adobe Illustrator 28.0.0, SVG Export Plug-In . SVG Version: 6.00 Build 0)  -->
<svg version="1.1" id="Vrstva_1" xmlns="http://www.w3.org/2000/svg" xmlns:xlink="http://www.w3.org/1999/xlink" x="0px" y="0px"
	 viewBox="0 0 21 20" style="enable-background:new 0 0 21 20;" xml:space="preserve">
<style type="text/css">
	.st0{clip-path:url(#SVGID_00000011017456718781491370000007028095293702496673_);}
	.st1{fill:#FFFFFF;}
</style>
<g>
	<defs>
		<rect id="SVGID_1_" x="0.5" width="20" height="20"/>
	</defs>
	<clipPath id="SVGID_00000123414298323292911070000016556194191928346771_">
		<use xlink:href="#SVGID_1_"  style="overflow:visible;"/>
	</clipPath>
	<g style="clip-path:url(#SVGID_00000123414298323292911070000016556194191928346771_);">
		<path class="st1" d="M10.5,0C5,0,0.5,4.5,0.5,10c0,4.7,3.2,8.6,7.6,9.7v-6.6H6V10h2.1V8.7c0-3.4,1.5-5,4.9-5
			c0.6,0,1.7,0.1,2.2,0.2v2.8c-0.2,0-0.6,0-1.2,0c-1.6,0-2.3,0.6-2.3,2.2V10H15l-0.6,3.1h-2.7v6.9c5-0.6,8.8-4.8,8.8-9.9
			C20.5,4.5,16,0,10.5,0z"/>
	</g>
</g>
</svg>
