<svg width="160" height="160" viewBox="0 0 160 160" fill="none" xmlns="http://www.w3.org/2000/svg">
<g clip-path="url(#clip0_145_7648)">
<path d="M5.80343 78.4326C6.53524 81.1486 8.55481 82.4867 11.8621 82.4867C13.9668 82.4867 15.6006 81.7522 16.6785 80.3287L21.1488 82.9194C19.0441 85.9828 15.907 87.5372 11.7771 87.5372C8.20876 87.5372 5.37229 86.4611 3.22224 84.3031C1.07219 82.1451 0 79.4234 0 76.1436C0 72.8639 1.07219 70.1878 3.18253 68.0355C5.28719 65.8376 8.03858 64.7557 11.3516 64.7557C14.4887 64.7557 17.1096 65.8319 19.1292 68.0355C21.1942 70.2333 22.2266 72.9095 22.2266 76.1436C22.2266 76.8782 22.1415 77.6127 22.0111 78.4326H5.80343ZM16.6785 74.1166C16.0318 71.1842 13.8817 69.7607 11.3459 69.7607C8.37895 69.7607 6.35938 71.355 5.71266 74.1166H16.6728H16.6785Z" fill="white"/>
<path d="M58.9472 61.476C55.8952 61.2596 54.3919 62.4667 54.3919 65.1429V65.3593H58.9472V70.7116H54.3919V86.9336H48.8494V70.7116H45.752V65.3593H48.8494V65.1429C48.8437 59.0618 52.2418 55.7365 58.9472 56.1237V61.476Z" fill="white"/>
<path d="M70.8946 87.5372C67.712 87.5372 65.006 86.4611 62.8106 84.2575C60.6208 82.0596 59.543 79.3379 59.543 76.1436C59.543 72.9493 60.6152 70.2789 62.8106 68.0753C65.0004 65.8774 67.712 64.7557 70.8946 64.7557C74.0771 64.7557 76.7831 65.8774 78.9785 68.0753C81.1683 70.2732 82.2858 72.9493 82.2858 76.1436C82.2858 79.3379 81.1683 82.054 78.9785 84.2575C76.7887 86.4554 74.0771 87.5372 70.8946 87.5372ZM70.8946 82.0995C72.5737 82.0995 73.9466 81.5358 75.0642 80.4141C76.1817 79.2924 76.7434 77.8689 76.7434 76.1436C76.7434 74.4184 76.1874 72.9949 75.0642 71.8732C73.9466 70.7515 72.5737 70.1935 70.8946 70.1935C69.2154 70.1935 67.8425 70.7515 66.7249 71.8732C65.6527 72.9949 65.0911 74.4184 65.0911 76.1436C65.0911 77.8689 65.6471 79.2924 66.7249 80.4141C67.8425 81.5358 69.2154 82.0995 70.8946 82.0995Z" fill="white"/>
<path d="M91.7437 69.0718C92.7761 66.3102 95.3517 64.9323 98.2789 64.9323V71.1444C96.5997 70.928 95.0567 71.2753 93.7235 72.1806C92.3904 73.086 91.7437 74.555 91.7437 76.6219V86.9337H86.2012V65.3593H91.7437V69.0718Z" fill="white"/>
<path d="M133.394 73.644V86.9337H127.845V74.0312C127.845 71.4404 126.512 69.9315 124.237 69.9315C121.702 69.9315 120.238 71.6568 120.238 74.8056V86.928H114.695V74.0255C114.695 71.4347 113.362 69.9258 111.087 69.9258C108.637 69.9258 107.048 71.6511 107.048 74.7999V86.9223H101.506V65.3593H107.048V67.6483C108.336 65.7066 110.316 64.7557 113.022 64.7557C115.728 64.7557 117.623 65.792 118.871 67.8646C120.289 65.792 122.439 64.7557 125.276 64.7557C130.217 64.7557 133.399 68.2518 133.399 73.644H133.394Z" fill="white"/>
<path d="M154.458 65.3593H160V86.9337H154.458V84.3885C152.779 86.5009 150.458 87.5372 147.452 87.5372C144.445 87.5372 142.119 86.4611 140.06 84.2575C138.04 82.0596 137.008 79.3379 137.008 76.1436C137.008 72.9493 138.04 70.2789 140.06 68.0753C142.125 65.8774 144.576 64.7557 147.452 64.7557C150.328 64.7557 152.784 65.792 154.458 67.9045V65.3593ZM148.484 82.2305C150.203 82.2305 151.621 81.6668 152.739 80.5451C153.902 79.3778 154.458 77.9145 154.458 76.1436C154.458 74.3728 153.896 72.9095 152.739 71.7878C151.621 70.6205 150.203 70.0625 148.484 70.0625C146.765 70.0625 145.347 70.6262 144.229 71.7878C143.112 72.9095 142.556 74.3785 142.556 76.1436C142.556 77.9088 143.112 79.3778 144.229 80.5451C145.347 81.6668 146.765 82.2305 148.484 82.2305Z" fill="white"/>
<path d="M35.661 75.8874L37.3005 78.1935L32.4785 71.4404L39.6548 61.476H46.0142L35.661 75.8874Z" fill="url(#paint0_linear_145_7648)"/>
<path d="M32.4662 80.3913L27.7973 86.928H21.3926L29.2553 75.9272L27.8881 74.0027L32.4662 80.3913Z" fill="url(#paint1_linear_145_7648)"/>
<path d="M43.5279 86.9279H37.1175L34.9277 83.8304L32.477 80.3685L32.4656 80.3913L27.8876 74.0027L21.7324 65.3593H28.1372L31.1098 69.5272L32.477 71.4404L37.299 78.1934L43.5279 86.9279Z" fill="#AB0035"/>
<path d="M60.388 95.8162V100.787H59.6052V95.8162C59.6052 94.3586 58.7769 93.5272 57.5289 93.5272C56.139 93.5272 55.186 94.4838 55.186 96.4141V100.787H54.4031V95.8162C54.4031 94.3586 53.6372 93.5272 52.4005 93.5272C51.0277 93.5272 49.9782 94.5123 49.9782 96.4141V100.787H49.1953V92.9465H49.9782V94.2959C50.5228 93.2767 51.351 92.7756 52.4913 92.7756C53.6316 92.7756 54.5392 93.3564 54.9307 94.3756C55.4753 93.3109 56.4624 92.7756 57.5402 92.7756C59.2421 92.7756 60.3824 93.886 60.3824 95.8162H60.388Z" fill="white"/>
<path d="M71.0302 92.9465H71.8244V100.787H71.0302V99.0162C70.3607 100.223 69.1524 100.964 67.6718 100.964C66.5599 100.964 65.6068 100.571 64.8126 99.7849C64.0184 98.9877 63.627 98.0141 63.627 96.8696C63.627 95.7251 64.0184 94.7514 64.8126 93.9657C65.6068 93.1685 66.5599 92.7756 67.6718 92.7756C69.1581 92.7756 70.3607 93.5102 71.0302 94.7173V92.9465ZM67.7342 100.206C68.6532 100.206 69.4361 99.876 70.0771 99.2326C70.7181 98.5892 71.0302 97.792 71.0302 96.8639C71.0302 95.9358 70.7181 95.1386 70.0771 94.4952C69.4361 93.8518 68.6532 93.5215 67.7342 93.5215C66.8152 93.5215 66.0153 93.8518 65.3742 94.4952C64.7332 95.1386 64.4212 95.9358 64.4212 96.8639C64.4212 97.792 64.7332 98.5892 65.3742 99.2326C66.0153 99.876 66.8095 100.206 67.7342 100.206Z" fill="white"/>
<path d="M82.4059 95.913V100.793H81.6117V95.913C81.6117 94.4554 80.7664 93.5272 79.3141 93.5272C77.703 93.5272 76.5797 94.6262 76.5797 96.6475V100.787H75.7969V92.9465H76.5797V94.4383C77.1414 93.3223 78.0774 92.7756 79.3765 92.7756C81.2372 92.7756 82.4059 94.0169 82.4059 95.913Z" fill="white"/>
<path d="M93.0477 92.9465H93.8419V100.787H93.0477V99.0162C92.3783 100.223 91.17 100.964 89.6894 100.964C88.5775 100.964 87.6244 100.571 86.8302 99.7849C86.036 98.9877 85.6445 98.0141 85.6445 96.8696C85.6445 95.7251 86.036 94.7514 86.8302 93.9657C87.6244 93.1685 88.5775 92.7756 89.6894 92.7756C91.1757 92.7756 92.3783 93.5102 93.0477 94.7173V92.9465ZM89.7518 100.206C90.6708 100.206 91.4536 99.876 92.0947 99.2326C92.7357 98.5892 93.0477 97.792 93.0477 96.8639C93.0477 95.9358 92.7357 95.1386 92.0947 94.4952C91.4536 93.8518 90.6708 93.5215 89.7518 93.5215C88.8327 93.5215 88.0328 93.8518 87.3918 94.4952C86.7508 95.1386 86.4387 95.9358 86.4387 96.8639C86.4387 97.792 86.7508 98.5892 87.3918 99.2326C88.0328 99.876 88.8271 100.206 89.7518 100.206Z" fill="white"/>
<path d="M104.751 92.9465H105.534V100.411C105.534 101.556 105.159 102.45 104.422 103.11C103.69 103.771 102.748 104.101 101.642 104.101C99.8436 104.101 98.5331 103.395 97.9545 102.216L98.6409 101.823C99.1401 102.843 100.139 103.344 101.642 103.344C103.582 103.344 104.751 102.216 104.751 100.411V98.9707C104.11 100.212 102.879 100.964 101.392 100.964C100.269 100.964 99.316 100.571 98.5161 99.7849C97.7332 98.9877 97.3418 98.0141 97.3418 96.8696C97.3418 95.7251 97.7332 94.7514 98.5161 93.9657C99.3103 93.1685 100.263 92.7756 101.392 92.7756C102.879 92.7756 104.11 93.5272 104.751 94.7685V92.9522V92.9465ZM101.438 100.206C102.357 100.206 103.14 99.876 103.781 99.2326C104.422 98.5892 104.751 97.792 104.751 96.8639C104.751 95.9358 104.422 95.1386 103.781 94.4952C103.14 93.8518 102.357 93.5215 101.438 93.5215C100.519 93.5215 99.7188 93.8518 99.0777 94.4952C98.4367 95.1386 98.1247 95.9358 98.1247 96.8639C98.1247 97.792 98.4367 98.5892 99.0777 99.2326C99.7188 99.876 100.513 100.206 101.438 100.206Z" fill="white"/>
<path d="M131.097 95.8162V100.787H130.314V95.8162C130.314 94.3586 129.486 93.5272 128.238 93.5272C126.848 93.5272 125.895 94.4838 125.895 96.4141V100.787H125.112V95.8162C125.112 94.3586 124.346 93.5272 123.11 93.5272C121.737 93.5272 120.687 94.5123 120.687 96.4141V100.787H119.904V92.9465H120.687V94.2959C121.232 93.2767 122.06 92.7756 123.2 92.7756C124.341 92.7756 125.248 93.3564 125.64 94.3756C126.184 93.3109 127.171 92.7756 128.249 92.7756C129.951 92.7756 131.091 93.886 131.091 95.8162H131.097Z" fill="white"/>
<path d="M141.16 93.9998C141.881 94.8141 142.238 95.7877 142.238 96.9037C142.238 96.9835 142.221 97.1998 142.221 97.2796H135.141C135.238 98.1564 135.578 98.8625 136.191 99.4148C136.798 99.95 137.563 100.212 138.454 100.212C139.702 100.212 140.672 99.6482 141.154 98.7828L141.841 99.1927C141.2 100.275 139.952 100.964 138.437 100.964C137.234 100.964 136.247 100.588 135.482 99.8191C134.716 99.0504 134.324 98.0653 134.324 96.8696C134.324 95.6739 134.699 94.723 135.447 93.9543C136.213 93.1685 137.183 92.7756 138.369 92.7756C139.555 92.7756 140.445 93.1856 141.149 93.9998H141.16ZM136.162 94.3586C135.567 94.9052 135.226 95.6283 135.147 96.5052H141.427C141.347 95.5828 141.007 94.8425 140.428 94.3244C139.85 93.7892 139.18 93.5272 138.38 93.5272C137.49 93.5272 136.758 93.8119 136.162 94.3586Z" fill="white"/>
<path d="M115.592 93.9998C116.312 94.8141 116.67 95.7877 116.67 96.9037C116.67 96.9835 116.653 97.1998 116.653 97.2796H109.573C109.669 98.1564 110.01 98.8625 110.622 99.4148C111.229 99.95 111.995 100.212 112.886 100.212C114.134 100.212 115.104 99.6482 115.586 98.7828L116.273 99.1927C115.631 100.275 114.383 100.964 112.869 100.964C111.666 100.964 110.679 100.588 109.913 99.8191C109.147 99.0504 108.756 98.0653 108.756 96.8696C108.756 95.6739 109.13 94.723 109.879 93.9543C110.645 93.1685 111.615 92.7756 112.801 92.7756C113.986 92.7756 114.877 93.1856 115.58 93.9998H115.592ZM110.594 94.3586C109.998 94.9052 109.658 95.6283 109.578 96.5052H115.858C115.779 95.5828 115.439 94.8425 114.86 94.3244C114.281 93.7892 113.612 93.5272 112.812 93.5272C111.921 93.5272 111.19 93.8119 110.594 94.3586Z" fill="white"/>
<path d="M151.939 95.913V100.793H151.145V95.913C151.145 94.4554 150.3 93.5272 148.847 93.5272C147.236 93.5272 146.113 94.6262 146.113 96.6475V100.787H145.33V92.9465H146.113V94.4383C146.675 93.3223 147.611 92.7756 148.91 92.7756C150.77 92.7756 151.939 94.0169 151.939 95.913Z" fill="white"/>
<path d="M159.7 93.7151H157.374V98.8112C157.374 100.178 158.106 100.24 159.7 100.081V100.787C157.59 101.1 156.574 100.554 156.574 98.8112V93.7151H154.855V92.9464H156.574V90.9877L157.369 90.7543V92.9521H159.694V93.7208L159.7 93.7151Z" fill="white"/>
</g>
<defs>
<linearGradient id="paint0_linear_145_7648" x1="35.1278" y1="74.481" x2="43.4854" y2="62.7008" gradientUnits="userSpaceOnUse">
<stop stop-color="#600023"/>
<stop offset="1" stop-color="#AB0035"/>
</linearGradient>
<linearGradient id="paint1_linear_145_7648" x1="31.4337" y1="75.4148" x2="23.9598" y2="85.9396" gradientUnits="userSpaceOnUse">
<stop stop-color="#600023"/>
<stop offset="1" stop-color="#AB0035"/>
</linearGradient>
<clipPath id="clip0_145_7648">
<rect width="160" height="48" fill="white" transform="translate(0 56.0952)"/>
</clipPath>
</defs>
</svg>
