<svg width="160" height="160" viewBox="0 0 160 160" fill="none" xmlns="http://www.w3.org/2000/svg">
<path d="M77.8179 58.456C76.6872 58.456 75.6028 58.007 74.8033 57.2077C74.0038 56.4084 73.5547 55.3244 73.5547 54.194V37.7691C73.5547 36.6337 74.0058 35.5449 74.8088 34.7421C75.6118 33.9393 76.7009 33.4883 77.8365 33.4883C78.9721 33.4883 80.0612 33.9393 80.8642 34.7421C81.6672 35.5449 82.1183 36.6337 82.1183 37.7691V54.162C82.1226 54.7276 82.0142 55.2883 81.7996 55.8115C81.5849 56.3348 81.2682 56.8101 80.8679 57.2097C80.4677 57.6094 79.9919 57.9254 79.4682 58.1394C78.9445 58.3534 78.3835 58.461 77.8179 58.456Z" fill="url(#paint0_linear_145_9478)"/>
<path d="M77.8181 97.9228C76.6874 97.9228 75.6031 97.4737 74.8036 96.6744C74.0041 95.8752 73.5549 94.7911 73.5549 93.6607V83.0961C73.5549 79.2816 72.0042 75.5629 69.068 72.3344L63.739 66.4741C59.3533 61.6473 57.0352 55.9361 57.0352 49.9586V27.5827C57.0352 26.4481 57.486 25.36 58.2885 24.5577C59.091 23.7554 60.1794 23.3047 61.3143 23.3047C62.4492 23.3047 63.5376 23.7554 64.3401 24.5577C65.1426 25.36 65.5935 26.4481 65.5935 27.5827V49.9586C65.5935 53.7731 67.1442 57.4971 70.0751 60.7203L75.4041 66.6126C79.7951 71.4394 82.1186 77.1505 82.1186 83.1281V93.6394C82.1214 94.204 82.012 94.7636 81.7967 95.2856C81.5814 95.8077 81.2645 96.2817 80.8644 96.6802C80.4642 97.0787 79.9889 97.3938 79.466 97.6071C78.943 97.8204 78.3829 97.9277 77.8181 97.9228Z" fill="white"/>
<path d="M60.9941 97.9228C59.8634 97.9228 58.7791 97.4737 57.9796 96.6744C57.1801 95.8752 56.7309 94.7911 56.7309 93.6607V88.5409C56.7309 84.721 55.1802 80.9971 52.2493 77.7792L46.8777 71.8656C42.4919 67.0708 40.1738 61.333 40.1738 55.3501V44.4285C40.1738 43.2932 40.6249 42.2044 41.4279 41.4016C42.2309 40.5988 43.32 40.1478 44.4556 40.1478C45.5913 40.1478 46.6804 40.5988 47.4834 41.4016C48.2863 42.2044 48.7375 43.2932 48.7375 44.4285V55.3448C48.7375 59.17 50.2829 62.8886 53.2138 66.1118L58.5428 71.9721C62.9338 76.767 65.2519 82.5048 65.2519 88.4876V93.6074C65.259 94.1712 65.1541 94.7307 64.9433 95.2536C64.7326 95.7765 64.4201 96.2524 64.0241 96.6538C63.6281 97.0551 63.1564 97.374 62.6363 97.5918C62.1162 97.8096 61.558 97.9221 60.9941 97.9228Z" fill="url(#paint1_linear_145_9478)"/>
<path d="M94.646 97.9228C93.5153 97.9228 92.431 97.4738 91.6315 96.6745C90.832 95.8752 90.3828 94.7911 90.3828 93.6607V88.5409C90.3828 82.5527 92.7062 76.8202 97.0973 72.0254L102.426 66.1651C105.357 62.9419 106.903 59.2392 106.903 55.398V44.4286C106.903 43.294 107.353 42.2058 108.156 41.4035C108.958 40.6012 110.047 40.1505 111.182 40.1505C112.317 40.1505 113.405 40.6012 114.208 41.4035C115.01 42.2058 115.461 43.294 115.461 44.4286V55.3448C115.461 61.333 113.148 67.0654 108.762 71.8603L103.433 77.7206C100.497 80.9172 98.9464 84.6465 98.9464 88.4876V93.6075C98.9536 94.1748 98.8473 94.7378 98.6339 95.2635C98.4205 95.7893 98.1043 96.2671 97.7037 96.669C97.3032 97.071 96.8264 97.3889 96.3013 97.6042C95.7763 97.8195 95.2135 97.9278 94.646 97.9228Z" fill="url(#paint2_linear_145_9478)"/>
<path d="M44.4588 35.4835C46.8222 35.4835 48.738 33.5682 48.738 31.2055C48.738 28.8428 46.8222 26.9274 44.4588 26.9274C42.0955 26.9274 40.1797 28.8428 40.1797 31.2055C40.1797 33.5682 42.0955 35.4835 44.4588 35.4835Z" fill="#00A4FF"/>
<path d="M111.181 35.4835C113.545 35.4835 115.461 33.5682 115.461 31.2055C115.461 28.8428 113.545 26.9274 111.181 26.9274C108.818 26.9274 106.902 28.8428 106.902 31.2055C106.902 33.5682 108.818 35.4835 111.181 35.4835Z" fill="#00A4FF"/>
<path d="M77.8182 27.5561C80.1815 27.5561 82.0974 25.6407 82.0974 23.278C82.0974 20.9153 80.1815 19 77.8182 19C75.4549 19 73.5391 20.9153 73.5391 23.278C73.5391 25.6407 75.4549 27.5561 77.8182 27.5561Z" fill="#00A4FF"/>
<path d="M77.8179 97.9228C76.6872 97.9228 75.6028 97.4737 74.8033 96.6744C74.0038 95.8751 73.5547 94.7911 73.5547 93.6607V83.0961C73.5547 77.1239 75.8728 71.4127 80.2585 66.5806L85.6088 60.6883C88.5344 57.4917 90.0851 53.7624 90.0851 49.9266V27.5508C90.0851 26.4161 90.536 25.328 91.3385 24.5257C92.141 23.7234 93.2294 23.2727 94.3643 23.2727C95.4992 23.2727 96.5876 23.7234 97.3901 24.5257C98.1926 25.328 98.6434 26.4161 98.6434 27.5508V49.9266C98.6434 55.9095 96.3253 61.6473 91.9396 66.4421L86.5787 72.3024C83.6477 75.5309 82.1023 79.2283 82.1023 83.0641V93.6394C82.1052 94.2027 81.9963 94.7609 81.782 95.2819C81.5676 95.8028 81.2522 96.2762 80.8537 96.6745C80.4553 97.0728 79.9819 97.3882 79.4608 97.6025C78.9397 97.8167 78.3813 97.9256 77.8179 97.9228Z" fill="white"/>
<path d="M31.3543 112.813L27.9704 115.477C27.611 115.05 27.1635 114.705 26.6585 114.467C26.1536 114.229 25.6031 114.103 25.0448 114.097H22.4602C21.9652 114.105 21.4783 114.224 21.0355 114.445C20.5927 114.666 20.2054 114.985 19.9023 115.376V111.114C20.7199 110.806 21.5868 110.651 22.4602 110.656H25.0714C27.0805 110.666 30.0061 111.487 31.3543 112.813Z" fill="#00A4FF"/>
<path d="M31.4399 120.533V126.868C31.412 127.817 31.0087 128.716 30.3183 129.368C29.628 130.02 28.707 130.372 27.7576 130.346H22.4872C20.5065 130.345 18.607 129.56 17.2039 128.162C15.8009 126.764 15.0085 124.868 15 122.888V118.146C14.9956 116.798 15.3571 115.473 16.0458 114.314C16.7346 113.154 17.725 112.203 18.9115 111.561V122.888C18.9115 125.115 20.5102 126.942 22.4872 126.942H27.5231V120.549L31.4399 120.533ZM38.7939 126.926V110.666H34.8824V126.868C34.9117 127.815 35.3149 128.712 36.0039 129.363C36.6929 130.014 37.6117 130.366 38.5594 130.341H49.8301L48.0023 126.921L38.7939 126.926ZM60.6053 130.613C62.5818 130.606 64.4753 129.818 65.8729 128.421C67.2705 127.023 68.0588 125.13 68.0658 123.154V117.88C68.0588 115.904 67.2705 114.011 65.8729 112.614C64.4753 111.216 62.5818 110.428 60.6053 110.421H57.9941C57.0121 110.418 56.0391 110.608 55.1309 110.981C54.2227 111.355 53.3971 111.903 52.7015 112.596C52.0059 113.289 51.4539 114.113 51.0773 115.019C50.7008 115.926 50.5069 116.898 50.5069 117.88V123.128C50.5069 124.109 50.7008 125.081 51.0773 125.988C51.4539 126.895 52.0059 127.718 52.7015 128.411C53.3971 129.104 54.2227 129.653 55.1309 130.026C56.0391 130.399 57.0121 130.59 57.9941 130.586L60.6053 130.613ZM57.9941 127.193C56.0117 127.193 54.4184 125.36 54.4184 123.133V117.88C54.4184 115.653 56.0171 113.82 57.9941 113.82H60.6053C62.5877 113.82 64.1757 115.653 64.1757 117.88V123.128C64.1757 125.355 62.577 127.187 60.6053 127.187L57.9941 127.193ZM84.527 120.224C85.1301 119.727 85.6158 119.103 85.9494 118.397C86.2829 117.69 86.4559 116.919 86.4561 116.138C86.4561 113.41 84.3245 110.677 80.1413 110.677H74.8709C73.9233 110.653 73.0045 111.004 72.3154 111.655C71.6264 112.306 71.2232 113.203 71.1939 114.151V130.346H80.1413C85.0492 130.346 87.5006 127.587 87.5006 124.806C87.4769 123.842 87.1865 122.903 86.6616 122.095C86.1367 121.286 85.3978 120.638 84.527 120.224ZM77.4555 118.711L75.3665 122.131H80.1626C82.5393 122.131 83.7117 123.351 83.7117 124.545C83.7117 125.738 82.5393 126.931 80.1626 126.931H75.1267V114.087H80.1626C80.4788 114.065 80.796 114.109 81.0946 114.215C81.3932 114.321 81.6668 114.488 81.8984 114.704C82.13 114.92 82.3146 115.182 82.4409 115.473C82.5671 115.763 82.6323 116.077 82.6323 116.394C82.6323 116.71 82.5671 117.024 82.4409 117.314C82.3146 117.605 82.13 117.867 81.8984 118.083C81.6668 118.299 81.3932 118.466 81.0946 118.572C80.796 118.678 80.4788 118.722 80.1626 118.7L77.4555 118.711Z" fill="#14A7FF"/>
<path d="M95.3928 110.666C94.8566 111.063 94.4191 111.578 94.1141 112.171C93.8091 112.764 93.645 113.42 93.6343 114.087H89.3711V110.666H95.3928Z" fill="white"/>
<path d="M94.5938 130.346V114.14C94.623 113.192 95.027 112.294 95.7172 111.643C96.4073 110.992 97.3275 110.641 98.2761 110.666H104.063V114.087H98.5105V130.346H94.5938Z" fill="white"/>
<path d="M110.389 126.921H120.381L122.209 130.341H110.171C109.222 130.367 108.302 130.016 107.612 129.365C106.922 128.714 106.518 127.816 106.488 126.868V114.14C106.518 113.192 106.922 112.294 107.612 111.643C108.302 110.992 109.222 110.641 110.171 110.666H122.225L120.397 114.087H110.389V118.881H119.598V122.302H110.389V126.921Z" fill="white"/>
<path d="M128.145 122.888C128.145 125.115 129.744 126.947 131.721 126.947H134.327C134.885 126.94 135.436 126.812 135.94 126.571C136.445 126.33 136.89 125.982 137.247 125.552L140.641 128.215C139.282 129.542 136.378 130.346 134.327 130.346H131.705C129.729 130.338 127.836 129.55 126.439 128.153C125.041 126.756 124.253 124.863 124.244 122.888V118.146C124.253 116.165 125.046 114.268 126.45 112.87C127.854 111.472 129.755 110.688 131.737 110.688H134.343C136.378 110.688 139.298 111.508 140.657 112.819L137.263 115.483C136.905 115.055 136.458 114.71 135.954 114.472C135.45 114.234 134.9 114.108 134.343 114.103H131.705C129.717 114.103 128.129 115.93 128.129 118.162L128.145 122.888Z" fill="white"/>
<defs>
<linearGradient id="paint0_linear_145_9478" x1="75.1682" y1="33.3455" x2="84.3256" y2="57.4452" gradientUnits="userSpaceOnUse">
<stop stop-color="#7AB4FF"/>
<stop offset="1" stop-color="#00A4FF"/>
</linearGradient>
<linearGradient id="paint1_linear_145_9478" x1="44.899" y1="39.8172" x2="62.4757" y2="98.3576" gradientUnits="userSpaceOnUse">
<stop stop-color="#7AB4FF"/>
<stop offset="1" stop-color="#00A4FF"/>
</linearGradient>
<linearGradient id="paint2_linear_145_9478" x1="95.1079" y1="39.8199" x2="112.683" y2="98.3581" gradientUnits="userSpaceOnUse">
<stop stop-color="#7AB4FF"/>
<stop offset="1" stop-color="#00A4FF"/>
</linearGradient>
</defs>
</svg>
