<svg width="160" height="160" viewBox="0 0 160 160" fill="none" xmlns="http://www.w3.org/2000/svg">
<g clip-path="url(#clip0_145_5465)">
<path d="M36.6055 26H45.5071L57.4069 46.9546L65.8651 31.8679L69.1622 26H78.0317L57.4487 62.6958L36.6055 26Z" fill="white"/>
<path d="M61.2168 69.3094L85.8199 26H94.7215L70.1184 69.3094L76.0153 79.6906L71.5677 87.5254L61.2168 69.3094Z" fill="#BF3F85"/>
<path d="M124.01 26L80.3082 102.938L75.8574 95.1094L92.8701 65.1608L86.324 54.4735L86.2308 54.3237H86.4076L98.992 54.3823L110.683 33.799H98.0697L101.881 27.0876L102.498 26H124.01Z" fill="#BF3F85"/>
<path d="M49.0735 110.873L47.9648 110.772V110.499H50.3815V110.792L49.2085 110.873H49.0735ZM48.6879 110.499H49.2406L51.2684 116.569H51.1174L53.0551 110.499H53.4151L51.2588 117.139H50.9888L48.6911 110.499H48.6879ZM53.0102 110.873L51.9465 110.792V110.499H54.151V110.772L53.1676 110.873H53.0102Z" fill="white"/>
<path d="M58.1446 117.074C58.1638 116.634 58.1735 115.631 58.1735 115.025V114.556C58.1735 113.98 58.1703 113.492 58.151 112.977L57.293 112.941V112.687L58.5463 112.381L58.662 112.456L58.6395 113.661V115.029C58.6395 115.634 58.6491 116.637 58.6684 117.077H58.1446V117.074ZM59.3979 116.82V117.074H57.338V116.82L58.3406 116.706H58.4691L59.3979 116.82ZM57.9196 110.532C57.9196 110.264 58.1189 110.095 58.3599 110.095C58.6009 110.095 58.8001 110.264 58.8001 110.532C58.8001 110.799 58.6009 110.968 58.3599 110.968C58.1189 110.968 57.9196 110.795 57.9196 110.532Z" fill="white"/>
<path d="M63.9416 117.074C63.9608 116.634 63.9705 115.631 63.9705 115.025V114.556C63.9705 113.934 63.9608 113.43 63.9416 112.977L63.0996 112.941V112.687L64.2726 112.381L64.3883 112.456L64.4461 113.54V115.029C64.4461 115.634 64.4557 116.637 64.475 117.077H63.9448L63.9416 117.074ZM65.2045 116.82V117.074H63.1446V116.82L64.1472 116.706H64.2758L65.2045 116.82ZM67.4669 114.061V115.029C67.4669 115.654 67.4765 116.637 67.4958 117.077H66.9655C66.9848 116.637 66.9945 115.654 66.9945 115.029V114.087C66.9945 113.13 66.6667 112.791 66.0947 112.791C65.6544 112.791 65.076 112.987 64.3754 113.746H64.2083V113.446H64.5104L64.2854 113.54C64.9185 112.73 65.6448 112.352 66.2811 112.352C67.0395 112.352 67.4701 112.817 67.4701 114.061H67.4669ZM67.2965 116.706L68.2253 116.82V117.074H66.1654V116.82L67.168 116.706H67.2965Z" fill="white"/>
<path d="M73.4592 114.563C73.9444 114.4 74.51 114.263 74.9952 114.159V114.407C74.5293 114.511 73.954 114.674 73.5459 114.83C72.7297 115.142 72.4694 115.517 72.4694 115.934C72.4694 116.497 72.8293 116.787 73.3627 116.787C73.8255 116.787 74.1758 116.556 74.7832 115.979L74.9245 115.849L74.9792 116.077L74.8153 116.25C74.2272 116.888 73.8255 117.194 73.1924 117.194C72.5015 117.194 71.9648 116.784 71.9648 116.022C71.9648 115.383 72.373 114.937 73.4559 114.56L73.4592 114.563ZM74.7607 116.132V113.928C74.7607 112.899 74.4168 112.642 73.7034 112.642C73.3467 112.642 72.9996 112.733 72.6268 112.99L72.9321 112.716L72.7265 113.449C72.6686 113.658 72.5626 113.755 72.389 113.755C72.2155 113.755 72.1127 113.654 72.087 113.485C72.2798 112.756 72.9257 112.345 73.7966 112.345C74.7542 112.345 75.233 112.782 75.233 113.866V116.018C75.233 116.653 75.3905 116.846 75.6637 116.846C75.8051 116.846 75.9143 116.787 76.0622 116.66L76.1971 116.829C76.0107 117.073 75.7794 117.187 75.5158 117.187C75.0274 117.187 74.7832 116.797 74.7607 116.136V116.132Z" fill="white"/>
<path d="M80.4607 115.025V114.556C80.4607 113.934 80.4511 113.43 80.4318 112.977L79.5898 112.941V112.687L80.7628 112.381L80.8785 112.456L80.9363 113.719V115.029C80.9363 115.634 80.946 116.637 80.9653 117.077H80.435C80.4543 116.637 80.4639 115.634 80.4639 115.029L80.4607 115.025ZM79.6413 116.816L80.6439 116.702H80.7724L81.8136 116.816V117.07H79.6413V116.816ZM81.5887 111.251H81.1581L82.4949 110.007L82.646 110.141L81.5758 111.512H81.1709L80.1008 110.141L80.2518 110.007L81.5887 111.251ZM80.6921 113.706H81.0456L80.8785 113.804C81.1645 112.938 81.8008 112.345 82.4564 112.345C82.7649 112.345 83.0284 112.476 83.1119 112.635C83.1119 112.938 82.9834 113.088 82.7134 113.088C82.5206 113.088 82.3792 112.993 82.1928 112.837L81.9743 112.648L82.4467 112.638C81.759 112.765 81.2802 113.26 80.9235 114.188H80.6953V113.71L80.6921 113.706Z" fill="white"/>
<path d="M86.5907 116.868L86.5586 115.852H86.8928L87.0856 116.917L86.7739 116.787V116.552C87.1049 116.774 87.4488 116.907 88.0079 116.907C88.8402 116.907 89.2484 116.523 89.2484 116.002C89.2484 115.55 88.9945 115.305 88.2682 115.042L87.8183 114.875C87.1274 114.618 86.6711 114.257 86.6711 113.602C86.6711 112.899 87.2238 112.352 88.2168 112.352C88.7374 112.352 89.0877 112.482 89.5215 112.746L89.4958 113.661H89.1744L89.0459 112.694L89.2773 112.834V113.023C88.9109 112.749 88.5574 112.645 88.1975 112.645C87.4809 112.645 87.1338 113.006 87.1338 113.485C87.1338 113.964 87.4263 114.182 88.0754 114.426L88.4835 114.579C89.3833 114.918 89.7143 115.305 89.7143 115.898C89.7143 116.592 89.1584 117.201 87.9886 117.201C87.4552 117.201 87.0599 117.087 86.5939 116.872L86.5907 116.868Z" fill="white"/>
<path d="M95.2703 116.862C95.5434 116.862 95.7266 116.79 95.9708 116.647L96.1026 116.836C95.8744 117.074 95.5531 117.201 95.1578 117.201C94.4701 117.201 94.1552 116.81 94.1648 116.041C94.1648 115.836 94.1744 115.647 94.1744 115.338V112.821H93.2168V112.534L94.4444 112.443L94.168 112.648L94.348 111.075H94.7015L94.6468 112.743V116.022C94.6468 116.614 94.8686 116.865 95.2703 116.865V116.862ZM96.0126 112.476V112.821H94.409V112.476H96.0126Z" fill="white"/>
<path d="M100.041 112.844L99.1504 112.743V112.476H101.191V112.743L100.172 112.844H100.044H100.041ZM100.224 112.476L101.798 116.722L101.541 116.94L103.119 112.476H103.473L101.75 117.132H101.487L99.6614 112.476H100.224ZM103.087 112.844L102.158 112.743V112.476H103.945V112.743L103.216 112.844H103.087Z" fill="white"/>
<path d="M108.144 115.025V114.556C108.144 113.934 108.134 113.43 108.115 112.977L107.27 112.941V112.687L108.523 112.381L108.639 112.456L108.616 113.661V115.029C108.616 115.634 108.626 116.637 108.645 117.077H108.115C108.134 116.637 108.144 115.634 108.144 115.029V115.025ZM107.315 116.816L108.317 116.702H108.446L109.374 116.816V117.07H107.315V116.816ZM109.066 110.137C109.236 109.887 109.339 109.799 109.461 109.799C109.583 109.799 109.702 109.88 109.702 110.043C109.702 110.154 109.632 110.264 109.413 110.486C109.092 110.812 108.7 111.209 108.298 111.603L108.137 111.476C108.462 111.007 108.786 110.532 109.069 110.134L109.066 110.137Z" fill="white"/>
<path d="M37.4815 126.865C37.4815 124.68 37.4654 124.263 37.4525 123.788C37.4365 123.179 37.2308 122.941 36.8066 122.896C36.6299 122.883 36.4242 122.867 36.2635 122.85C36.045 122.837 36 122.775 36 122.7C36 122.58 36.1189 122.551 36.2924 122.551C37.189 122.551 37.9217 122.596 38.6383 122.596C39.6056 122.596 40.4733 122.551 41.0453 122.551C44.14 122.551 44.7281 124.006 44.7281 124.84C44.7281 126.045 43.9054 126.816 42.9381 127.321C44.4774 127.797 45.7853 128.747 45.7853 130.548C45.7853 132.199 44.2589 133.834 41.341 133.834C40.7979 133.834 39.0658 133.746 38.6255 133.746C37.9796 133.746 37.2886 133.792 36.4981 133.792C36.2924 133.792 36.1896 133.746 36.1896 133.642C36.1896 133.538 36.2635 133.492 36.482 133.492C36.6716 133.476 36.8034 133.463 36.9223 133.433C37.1858 133.388 37.3465 133.166 37.3915 132.616C37.4493 131.799 37.4782 130.936 37.4782 129.063V126.862L37.4815 126.865ZM40.0202 129.392C40.0202 130.105 40.0041 131.147 40.0491 131.906C40.078 132.382 40.1359 132.574 40.4315 132.723C40.7529 132.916 41.1064 132.961 41.3988 132.961C42.1604 132.961 43.0731 132.427 43.0731 130.939C43.0731 130.167 42.8835 129.288 42.2086 128.65C41.8134 128.262 41.2992 128.116 40.8429 128.083C40.6083 128.07 40.2548 128.07 40.1102 128.083C40.0523 128.083 40.0234 128.112 40.0234 128.187V129.392H40.0202ZM40.0202 127.028C40.0202 127.149 40.078 127.162 40.1519 127.178C40.3865 127.224 40.8718 127.237 41.0775 127.237C41.4149 127.237 41.7523 127.178 41.958 126.999C42.2665 126.745 42.4432 126.224 42.4432 125.586C42.4432 124.381 41.8551 123.371 40.6982 123.371C40.4637 123.371 40.2869 123.401 40.1712 123.446C40.0845 123.475 40.0234 123.505 40.0234 123.713V127.028H40.0202Z" fill="#BF3F85"/>
<path d="M48.4555 126.865C48.4555 124.443 48.4395 124.146 48.4106 123.668C48.3816 123.238 48.2499 122.984 47.8835 122.893C47.7518 122.863 47.5461 122.863 47.3983 122.847C47.2087 122.834 47.1348 122.772 47.1348 122.684C47.1348 122.596 47.2215 122.551 47.4561 122.551C48.2917 122.551 48.9954 122.596 49.6414 122.596C49.9499 122.596 53.5426 122.58 53.7772 122.58C54.0697 122.58 54.4232 122.551 54.571 122.521C54.6738 122.492 54.7477 122.463 54.8056 122.463C54.8795 122.463 54.8923 122.521 54.8923 122.596C54.8923 122.671 54.8634 122.818 54.8184 123.251C54.7734 123.547 54.7445 124.068 54.6995 124.843C54.6995 124.964 54.6417 125.052 54.5517 125.052C54.4778 125.052 54.4199 124.977 54.4039 124.843C54.4039 124.68 54.3878 124.531 54.33 124.322C54.2561 123.98 54.0664 123.788 53.3627 123.726C52.8774 123.681 51.6016 123.651 51.1614 123.651C51.0746 123.651 51.0425 123.697 51.0425 123.801V127.07C51.0425 127.175 51.0553 127.25 51.1614 127.25C51.5727 127.266 52.7617 127.25 53.2888 127.237C54.0086 127.207 54.1982 127.162 54.3589 126.895C54.4457 126.761 54.4906 126.703 54.5646 126.703C54.6513 126.703 54.6513 126.79 54.6513 126.882C54.6513 127.031 54.5774 127.565 54.5324 128.145C54.5196 128.487 54.5196 129.216 54.5196 129.379C54.5196 129.571 54.4746 129.663 54.3878 129.663C54.285 129.663 54.2561 129.558 54.2271 129.425C54.2143 129.304 54.1982 129.2 54.1821 129.083C54.1243 128.653 53.9186 128.399 53.1988 128.353C52.7874 128.324 51.5856 128.295 51.1292 128.295C51.0553 128.295 51.0425 128.37 51.0425 128.487V129.513C51.0425 130.017 51.0264 130.897 51.0425 131.46C51.0553 132.502 51.261 132.74 52.8903 132.74C53.2727 132.74 53.8447 132.724 54.2561 132.561C54.6674 132.398 54.8441 132.069 54.9759 131.385C55.0048 131.206 55.0627 131.118 55.1526 131.118C55.2715 131.118 55.2844 131.268 55.2844 131.444C55.2844 132.023 55.1237 133.153 55.0498 133.437C54.947 133.824 54.8441 133.837 54.301 133.837C52.2765 133.837 51.1774 133.749 49.6349 133.749C48.944 133.749 48.3302 133.795 47.5236 133.795C47.2601 133.795 47.1701 133.749 47.1701 133.645C47.1701 133.57 47.244 133.495 47.4625 133.495C47.6393 133.479 47.7839 133.466 47.9028 133.437C48.3141 133.378 48.372 132.811 48.4009 131.877C48.4298 131.281 48.4459 130.405 48.4459 129.483V126.865H48.4555Z" fill="#BF3F85"/>
<path d="M58.0788 126.865C58.0788 124.56 58.0499 124.264 58.0338 123.788C58.0049 123.179 57.8281 122.984 57.4746 122.912C57.2561 122.867 57.0183 122.867 56.8866 122.854C56.7098 122.84 56.623 122.779 56.623 122.691C56.623 122.603 56.7259 122.557 56.9444 122.557C57.5743 122.557 58.985 122.603 59.1907 122.603C59.4703 122.603 60.8778 122.557 61.5527 122.557C62.9313 122.557 63.8986 122.691 64.5445 123.062C65.2483 123.449 65.8781 124.205 65.8781 125.338C65.8781 126.585 65.1744 127.539 63.9114 128.327C64.808 129.636 65.8781 131.226 66.7715 132.268C67.5492 133.144 67.8995 133.398 68.3108 133.456C68.4715 133.485 68.5615 133.485 68.6772 133.502C68.8379 133.502 68.9278 133.56 68.9278 133.652C68.9278 133.785 68.78 133.801 68.6354 133.801H67.3146C65.8042 133.801 65.1583 133.652 64.6441 133.31C64.175 133.026 63.7058 132.388 63.1338 131.45C62.4589 130.32 62.1215 129.711 61.858 129.311C61.829 129.265 61.7551 129.223 61.6812 129.223H60.7139C60.64 129.223 60.595 129.252 60.595 129.343V130.102C60.595 131.278 60.595 131.975 60.6689 132.6C60.6979 132.987 60.8007 133.313 61.241 133.417C61.4466 133.476 61.6073 133.476 61.8997 133.505C62.1343 133.521 62.1633 133.58 62.1633 133.668C62.1633 133.756 62.0604 133.801 61.8547 133.801C60.8714 133.801 59.271 133.756 59.1682 133.756C58.9915 133.756 57.5678 133.801 57.0697 133.801C56.8512 133.801 56.7773 133.756 56.7773 133.652C56.7773 133.547 56.8801 133.502 57.0408 133.502C57.1886 133.485 57.3782 133.472 57.5389 133.443C57.8314 133.368 57.9503 133.101 57.9952 132.597C58.0531 131.971 58.0692 130.933 58.0692 129.49V126.872L58.0788 126.865ZM60.6015 127.862C60.6015 127.982 60.6464 128.041 60.7332 128.083C61.0128 128.233 61.4531 128.275 61.8644 128.275C62.2757 128.275 62.5553 128.217 62.7899 128.038C63.0984 127.8 63.3619 127.162 63.3619 126.165C63.3619 124.055 62.0411 123.505 61.2795 123.505C61.0449 123.505 60.7943 123.521 60.6914 123.563C60.6336 123.593 60.6047 123.609 60.6047 123.726V127.859L60.6015 127.862Z" fill="#BF3F85"/>
<path d="M69.6949 123.042C69.711 122.596 69.7688 122.329 69.9456 122.329C70.0645 122.329 70.1352 122.375 70.5176 122.687C71.1346 123.209 71.8962 123.951 75.2576 127.074C76.7552 128.471 77.7674 129.467 78.1627 129.825L78.0759 124.251C78.047 123.417 77.9731 123.033 77.385 122.928C77.1793 122.883 76.9448 122.87 76.7391 122.854C76.5495 122.854 76.4756 122.779 76.4756 122.704C76.4756 122.6 76.6073 122.554 76.768 122.554C77.3561 122.554 78.3073 122.6 78.8954 122.6C79.2168 122.6 79.9527 122.554 80.5665 122.554C80.7882 122.554 80.8878 122.6 80.8878 122.687C80.8878 122.762 80.8139 122.85 80.6372 122.85C80.4476 122.867 80.3736 122.867 80.2708 122.896C79.7856 122.955 79.6409 123.208 79.596 124.13C79.4771 127.119 79.4771 130.092 79.4192 133.078C79.4192 133.837 79.3164 134 79.1268 134C78.8922 134 78.4359 133.642 77.4846 132.795C76.4884 131.903 75.1966 130.727 74.3161 129.91C73.4934 129.151 72.028 127.754 70.9546 126.699L71.1025 131.769C71.1314 132.841 71.1892 133.241 71.6006 133.391C71.8191 133.466 72.0858 133.466 72.3783 133.495C72.5968 133.512 72.6707 133.554 72.6707 133.645C72.6707 133.766 72.5518 133.795 72.3172 133.795C71.803 133.795 71.3339 133.766 70.4244 133.749C70.087 133.749 69.0008 133.795 68.4288 133.795C68.2231 133.795 68.1074 133.766 68.1074 133.645C68.1074 133.557 68.1813 133.495 68.387 133.495C68.5188 133.479 68.7084 133.479 68.8723 133.45C69.4443 133.362 69.5182 132.987 69.5632 131.607C69.6371 128.546 69.6082 124.96 69.6949 123.042Z" fill="#BF3F85"/>
<path d="M84.5112 130.714C84.4373 130.714 84.4084 130.744 84.3795 130.819L83.9232 132.036C83.7753 132.424 83.6886 132.808 83.6886 132.987C83.6886 133.271 83.8203 133.404 84.1288 133.433C84.2895 133.463 84.5241 133.479 84.643 133.492C84.8615 133.492 84.9065 133.567 84.9065 133.642C84.9065 133.762 84.7876 133.792 84.598 133.792C83.9392 133.792 83.4379 133.746 82.6602 133.746C82.4995 133.746 81.529 133.792 80.7963 133.792C80.5907 133.792 80.5039 133.733 80.5039 133.642C80.5039 133.521 80.6067 133.492 80.7835 133.492C80.9602 133.476 81.1048 133.463 81.2527 133.433C81.7668 133.329 82.0593 132.87 82.3678 132.154L86.2851 123.173C86.5647 122.534 86.7254 122.31 86.8861 122.31C87.0339 122.31 87.1657 122.518 87.4131 123.052C87.7955 123.886 90.2603 129.578 91.2565 131.838C91.7546 132.997 92.0792 133.355 92.5902 133.427C92.7508 133.473 92.9276 133.473 93.0593 133.486C93.2489 133.486 93.3389 133.544 93.3389 133.635C93.3389 133.74 93.2361 133.785 92.9565 133.785C91.52 133.785 89.8458 133.756 88.9074 133.74C88.6728 133.74 88.586 133.694 88.586 133.606C88.586 133.518 88.66 133.456 88.7917 133.427C88.9524 133.398 89.0102 133.293 88.9685 133.16L87.9851 130.796C87.9723 130.737 87.9112 130.708 87.8662 130.708H84.5048L84.5112 130.714ZM87.4452 129.526C87.532 129.526 87.532 129.48 87.5191 129.451L86.2273 126.269C86.1823 126.165 86.1534 126.195 86.1244 126.269L84.8776 129.451C84.8615 129.497 84.8936 129.526 84.9354 129.526H87.4452ZM89.7333 120.102C89.8072 120.281 89.7333 120.34 89.6594 120.34C89.5405 120.34 89.1452 120.398 88.8078 120.519C87.9112 120.815 87.2396 121.069 86.6065 121.382C86.4587 121.457 86.343 121.502 86.2691 121.502C86.2112 121.502 86.1502 121.473 86.1502 121.398C86.1502 121.339 86.208 121.248 86.298 121.131C86.8411 120.463 87.8983 119.405 88.2647 119.125C88.4864 118.946 88.631 118.858 88.7499 118.858C88.8367 118.858 88.8978 118.887 89.0424 119.021C89.232 119.213 89.5694 119.617 89.7333 120.105V120.102Z" fill="#BF3F85"/>
<path d="M97.8909 129.48C97.8909 130.639 97.8909 132.023 97.9648 132.645C97.9938 133.033 98.0966 133.346 98.5368 133.42C98.7264 133.45 98.9032 133.466 99.1667 133.495C99.4013 133.512 99.4591 133.554 99.4591 133.658C99.4591 133.746 99.3852 133.792 99.1217 133.792C98.1255 133.792 96.7019 133.746 96.4673 133.746C96.2166 133.746 94.793 133.792 94.311 133.792C94.0764 133.792 93.9736 133.762 93.9736 133.642C93.9736 133.538 94.0925 133.492 94.266 133.492C94.4138 133.476 94.5745 133.463 94.7352 133.433C95.0565 133.375 95.1594 133.046 95.2044 132.616C95.2622 131.991 95.2911 130.923 95.2911 129.48V123.651C94.7191 123.651 93.8097 123.635 93.077 123.681C92.2543 123.726 91.9329 123.918 91.7433 124.439C91.6694 124.602 91.6405 124.693 91.6116 124.781C91.5827 124.902 91.5377 125.019 91.4348 125.019C91.3031 125.019 91.3031 124.899 91.3159 124.723C91.3738 124.114 91.5377 123.309 91.6373 122.746C91.6662 122.525 91.7112 122.375 91.798 122.375C91.9008 122.375 91.9586 122.42 92.2961 122.495C92.5596 122.554 93.3662 122.6 93.9254 122.6H100.308C100.764 122.6 101.027 122.57 101.233 122.541C101.468 122.495 101.587 122.453 101.689 122.453C101.821 122.453 101.837 122.541 101.837 122.915C101.837 123.124 101.75 124.508 101.734 124.879C101.718 125.087 101.677 125.175 101.587 125.175C101.468 125.175 101.439 125.087 101.426 124.908C101.41 124.745 101.41 124.684 101.397 124.612C101.339 124.15 101.117 123.795 100.253 123.736C99.7676 123.69 99.006 123.661 97.8909 123.661V129.49V129.48Z" fill="#BF3F85"/>
<path d="M104.256 126.865C104.256 124.443 104.24 124.146 104.211 123.668C104.182 123.238 104.051 122.984 103.684 122.893C103.553 122.863 103.347 122.863 103.199 122.847C103.009 122.834 102.936 122.772 102.936 122.684C102.936 122.596 103.022 122.551 103.257 122.551C104.092 122.551 104.796 122.596 105.442 122.596C105.751 122.596 109.343 122.58 109.578 122.58C109.87 122.58 110.224 122.551 110.372 122.521C110.475 122.492 110.549 122.463 110.606 122.463C110.68 122.463 110.693 122.521 110.693 122.596C110.693 122.671 110.664 122.818 110.619 123.251C110.574 123.547 110.545 124.068 110.5 124.843C110.5 124.964 110.442 125.052 110.352 125.052C110.279 125.052 110.221 124.977 110.205 124.843C110.205 124.68 110.192 124.531 110.131 124.322C110.057 123.98 109.867 123.788 109.163 123.726C108.678 123.681 107.402 123.651 106.962 123.651C106.875 123.651 106.843 123.697 106.843 123.801V127.07C106.843 127.175 106.859 127.25 106.962 127.25C107.373 127.266 108.563 127.25 109.09 127.237C109.809 127.207 109.999 127.162 110.16 126.895C110.246 126.761 110.291 126.703 110.365 126.703C110.452 126.703 110.452 126.79 110.452 126.882C110.452 127.031 110.378 127.565 110.333 128.145C110.317 128.487 110.317 129.216 110.317 129.379C110.317 129.571 110.272 129.663 110.185 129.663C110.083 129.663 110.054 129.558 110.025 129.425C110.009 129.304 109.996 129.2 109.98 129.083C109.922 128.653 109.716 128.399 108.996 128.353C108.585 128.324 107.383 128.295 106.927 128.295C106.853 128.295 106.84 128.37 106.84 128.487V129.513C106.84 130.017 106.824 130.897 106.84 131.46C106.856 132.502 107.059 132.74 108.688 132.74C109.07 132.74 109.642 132.724 110.054 132.561C110.465 132.398 110.642 132.069 110.773 131.385C110.802 131.206 110.86 131.118 110.95 131.118C111.069 131.118 111.082 131.268 111.082 131.444C111.082 132.023 110.921 133.153 110.847 133.437C110.745 133.824 110.642 133.837 110.099 133.837C108.074 133.837 106.975 133.749 105.432 133.749C104.742 133.749 104.128 133.795 103.321 133.795C103.058 133.795 102.968 133.749 102.968 133.645C102.968 133.57 103.042 133.495 103.26 133.495C103.437 133.479 103.581 133.466 103.7 133.437C104.112 133.378 104.17 132.811 104.198 131.877C104.227 131.281 104.243 130.405 104.243 129.483V126.865H104.256Z" fill="#BF3F85"/>
<path d="M116.418 127.758C117.224 126.999 118.426 125.722 119.586 124.397C120.071 123.834 120.348 123.417 120.348 123.179C120.348 123.016 120.29 122.925 119.936 122.853C119.805 122.84 119.686 122.808 119.686 122.704C119.686 122.629 119.76 122.57 119.92 122.57C120.579 122.57 120.64 122.6 121.476 122.6C122.311 122.6 123.397 122.57 123.587 122.57C123.838 122.57 123.896 122.6 123.896 122.704C123.896 122.779 123.822 122.837 123.632 122.853C123.414 122.883 123.279 122.899 123.105 122.941C122.385 123.091 121.916 123.537 121.212 124.221C120.537 124.876 118.879 126.615 118.497 127.031C119.069 127.94 121.489 130.913 122.472 131.952C123.353 132.86 123.748 133.186 124.011 133.306C124.275 133.427 124.452 133.469 124.686 133.498C124.892 133.515 124.995 133.544 124.995 133.661C124.995 133.779 124.863 133.795 124.702 133.795H123.266C121.328 133.795 120.653 133.603 119.904 132.769C119.098 131.877 117.497 129.796 116.411 128.174V129.483C116.411 130.643 116.424 131.997 116.485 132.619C116.514 132.991 116.617 133.362 117.115 133.437C117.321 133.466 117.555 133.482 117.745 133.495C117.922 133.495 117.995 133.57 117.995 133.645C117.995 133.72 117.938 133.795 117.716 133.795C116.749 133.795 115.177 133.749 115.045 133.749C114.972 133.749 113.3 133.795 112.815 133.795C112.626 133.795 112.523 133.766 112.523 133.645C112.523 133.541 112.626 133.495 112.786 133.495C112.934 133.479 113.079 133.479 113.243 133.45C113.699 133.375 113.741 133.02 113.786 132.587C113.844 131.962 113.872 130.923 113.872 129.48V126.862C113.872 124.557 113.872 124.143 113.827 123.664C113.799 123.248 113.638 122.98 113.284 122.906C113.066 122.86 112.873 122.86 112.728 122.847C112.539 122.847 112.42 122.818 112.42 122.684C112.42 122.596 112.539 122.551 112.815 122.551C113.445 122.551 114.943 122.596 115.045 122.596C115.177 122.596 116.954 122.551 117.481 122.551C117.732 122.551 117.79 122.609 117.79 122.684C117.79 122.788 117.716 122.834 117.526 122.847C117.395 122.863 117.308 122.863 117.086 122.893C116.572 122.967 116.485 123.309 116.456 123.785C116.427 124.26 116.411 124.557 116.411 126.862V127.754L116.418 127.758Z" fill="#BF3F85"/>
</g>
<defs>
<clipPath id="clip0_145_5465">
<rect width="89" height="108" fill="white" transform="translate(36 26)"/>
</clipPath>
</defs>
</svg>
