<svg width="160" height="160" viewBox="0 0 160 160" fill="none" xmlns="http://www.w3.org/2000/svg">
<g clip-path="url(#clip0_145_9405)">
<path d="M39.9123 110.632H43.7149V131.126H39.9123V129.398C38.7915 130.831 37.1998 131.537 35.1373 131.537C33.0747 131.537 31.4523 130.806 30.0347 129.312C28.6477 127.818 27.9414 125.973 27.9414 123.808C27.9414 121.643 28.6477 119.824 30.0347 118.335C31.4523 116.841 33.1617 116.079 35.1373 116.079C37.1128 116.079 38.7915 116.78 39.9123 118.219V110.637V110.632ZM35.8435 127.934C37.0207 127.934 37.9982 127.553 38.7608 126.791C39.5285 125.998 39.9123 125.007 39.9123 123.803C39.9123 122.599 39.5285 121.608 38.7608 120.846C37.9931 120.053 37.0207 119.677 35.8435 119.677C34.6664 119.677 33.6889 120.058 32.8956 120.846C32.1023 121.633 31.744 122.604 31.744 123.803C31.744 125.002 32.1279 125.998 32.8956 126.791C33.694 127.553 34.6664 127.934 35.8435 127.934Z" fill="#B68C66"/>
<path d="M58.3986 116.491H62.2013V131.131H58.3986V129.403C57.2471 130.836 55.6554 131.542 53.5929 131.542C51.5303 131.542 49.9387 130.811 48.521 129.317C47.134 127.823 46.4277 125.978 46.4277 123.813C46.4277 121.649 47.134 119.829 48.521 118.34C49.9387 116.846 51.6173 116.084 53.5929 116.084C55.5684 116.084 57.2471 116.785 58.3986 118.224V116.496V116.491ZM54.2992 127.94C55.4763 127.94 56.4538 127.558 57.2164 126.796C57.979 126.034 58.3935 125.013 58.3935 123.808C58.3935 122.604 58.0097 121.613 57.2164 120.851C56.4487 120.058 55.4763 119.682 54.2992 119.682C53.122 119.682 52.1445 120.063 51.3819 120.851C50.6142 121.613 50.2304 122.609 50.2304 123.808C50.2304 125.007 50.6142 126.003 51.3819 126.796C52.1496 127.558 53.122 127.94 54.2992 127.94Z" fill="#B68C66"/>
<path d="M75.2666 116.491H79.3354L73.9666 131.131C72.4312 135.348 69.9541 137.193 66.1822 136.985V133.473C68.2191 133.504 69.34 132.655 70.0463 130.663L64.002 116.491H68.1577L71.9911 126.329L75.2666 116.491Z" fill="#B68C66"/>
<path d="M94.7883 118.335C96.2059 119.829 96.9122 121.643 96.9122 123.808C96.9122 125.973 96.2059 127.818 94.7883 129.312C93.4013 130.806 91.6919 131.537 89.7164 131.537C87.7408 131.537 86.0621 130.836 84.9413 129.398V131.126H81.1387V110.632H84.9413V118.213C86.0621 116.78 87.6538 116.074 89.7164 116.074C91.7789 116.074 93.4013 116.836 94.7883 118.33V118.335ZM89.0101 127.94C90.1872 127.94 91.1647 127.558 91.9273 126.796C92.6899 126.034 93.1045 125.013 93.1045 123.808C93.1045 122.604 92.7206 121.613 91.9273 120.851C91.1596 120.058 90.1872 119.682 89.0101 119.682C87.833 119.682 86.8554 120.063 86.0929 120.851C85.3252 121.613 84.9413 122.609 84.9413 123.808C84.9413 125.007 85.3252 126.003 86.0929 126.796C86.8605 127.558 87.833 127.94 89.0101 127.94Z" fill="#FFFAD5"/>
<path d="M102.807 125.363C103.309 127.208 104.696 128.117 106.963 128.117C108.406 128.117 109.527 127.619 110.264 126.654L113.33 128.412C111.886 130.491 109.732 131.547 106.902 131.547C104.455 131.547 102.51 130.816 101.031 129.352C99.5522 127.889 98.8203 126.044 98.8203 123.818C98.8203 121.593 99.5573 119.779 101.001 118.315C102.444 116.821 104.332 116.089 106.605 116.089C108.759 116.089 110.556 116.821 111.943 118.315C113.36 119.809 114.067 121.623 114.067 123.818C114.067 124.316 114.005 124.814 113.918 125.368H102.802L102.807 125.363ZM110.269 122.436C109.829 120.444 108.35 119.479 106.615 119.479C104.578 119.479 103.196 120.561 102.751 122.436H110.269Z" fill="#FFFAD5"/>
<path d="M119.819 125.363C120.32 127.208 121.707 128.117 123.975 128.117C125.418 128.117 126.539 127.619 127.276 126.654L130.341 128.412C128.898 130.491 126.744 131.547 123.913 131.547C121.467 131.547 119.522 130.816 118.043 129.352C116.564 127.889 115.832 126.044 115.832 123.818C115.832 121.593 116.569 119.779 118.012 118.315C119.456 116.821 121.344 116.089 123.616 116.089C125.771 116.089 127.568 116.821 128.954 118.315C130.372 119.809 131.078 121.623 131.078 123.818C131.078 124.316 131.017 124.814 130.93 125.368H119.814L119.819 125.363ZM127.281 122.436C126.841 120.444 125.362 119.479 123.627 119.479C121.59 119.479 120.208 120.561 119.763 122.436H127.281Z" fill="#FFFAD5"/>
<path d="M129.763 60.004C119.445 48.1741 110.187 43.1687 101.481 44.7085C99.5821 45.0438 97.8471 45.674 96.2657 46.5175C96.2657 42.3506 94.4693 38.1177 91.2808 34.8197C89.3667 32.843 87.0789 31.3744 84.6633 30.5156C84.7861 30.3124 84.9089 30.1091 85.0574 29.9058C86.8179 27.4362 89.2387 26.4453 90.5285 26.0692C91.3627 25.8304 91.8386 24.9615 91.5981 24.1281C91.3576 23.2998 90.4824 22.8272 89.643 23.066C87.9644 23.5488 84.7912 24.8548 82.483 28.1019C82.0889 28.6558 81.7716 29.2046 81.4901 29.7483C80.9016 29.6772 80.313 29.6314 79.7193 29.6314C78.9926 29.6314 78.2658 29.6924 77.534 29.8093C77.2525 29.2401 76.9198 28.671 76.5104 28.1019C74.2022 24.8497 71.0342 23.5488 69.3503 23.061C68.511 22.8221 67.641 23.2947 67.3953 24.123C67.1547 24.9513 67.6307 25.8203 68.4649 26.0642C69.7495 26.4402 72.1755 27.4311 73.936 29.9008C74.1152 30.1498 74.2738 30.3987 74.4171 30.6528C72.1396 31.5319 69.985 32.9548 68.1681 34.8451C64.908 38.2142 63.1064 42.5488 63.1832 46.7767C61.4738 45.801 59.6006 45.0794 57.5074 44.7135C48.8018 43.1687 39.5434 48.1792 29.2256 60.0091L26.9941 62.5702L29.2256 65.1313C38.3355 75.579 46.6164 80.7012 54.4213 80.7012C55.4602 80.7012 56.4889 80.6149 57.5074 80.4319C58.8483 80.1982 60.0971 79.817 61.2691 79.3191C61.7399 86.7432 66.8937 94.6095 76.9147 103.223L79.4941 105.438L82.0736 103.223C92.0894 94.6095 97.2432 86.7432 97.7141 79.3191C98.8912 79.817 100.14 80.1982 101.471 80.4319C102.494 80.6149 103.523 80.7012 104.557 80.7012C112.367 80.7012 120.643 75.579 129.758 65.1313L131.994 62.5702L129.758 60.0091L129.763 60.004ZM56.1358 72.7232C51.4477 73.5515 45.603 70.5889 39.0469 64.1251H66.3615C63.5312 68.3683 60.3223 71.9914 56.1358 72.7232ZM39.0469 60.9949C45.603 54.5362 51.4529 51.5737 56.1358 52.402C60.3172 53.1388 63.5312 56.7569 66.3615 60.9949H39.0469ZM73.8542 40.2519C75.5789 38.4632 77.7182 37.4418 79.7244 37.4418C81.7307 37.4418 83.8905 38.4581 85.6101 40.2316C87.4423 42.1219 88.4864 44.5713 88.3994 46.7767C88.384 47.2238 88.3073 47.6609 88.1691 48.1182C87.253 51.0553 83.5015 53.6469 79.5351 56.1268L79.5146 56.1115L79.4941 56.1268C75.671 53.7079 72.1652 51.1671 71.2952 48.1741C71.1621 47.7117 71.0853 47.2594 71.07 46.7716C70.983 44.5814 72.027 42.1473 73.8644 40.2519H73.8542ZM79.4788 65.3396L79.4941 65.3498L79.5146 65.3396C83.4503 67.794 87.1045 70.4924 88.8293 73.8665H70.1641C71.8837 70.4924 75.538 67.794 79.4737 65.3396H79.4788ZM79.4993 94.9906C76.495 92.1754 74.1408 89.4822 72.4314 86.9465H86.5723C84.8629 89.4822 82.5035 92.1805 79.5044 94.9906H79.4993ZM88.384 83.8162H70.6042C69.4169 81.3466 68.9511 79.065 69.1968 76.9968H89.7863C90.032 79.065 89.5663 81.3466 88.3789 83.8162H88.384ZM102.858 72.7232C98.6762 71.9863 95.4622 68.3683 92.6319 64.1251H119.946C113.39 70.5889 107.541 73.5515 102.858 72.7232ZM92.6319 60.9949C95.4622 56.7569 98.6711 53.1337 102.858 52.402C107.541 51.5737 113.39 54.5362 119.946 60.9949H92.6319Z" fill="#B68C66"/>
</g>
<defs>
<clipPath id="clip0_145_9405">
<rect width="105" height="114" fill="white" transform="translate(27 23)"/>
</clipPath>
</defs>
</svg>
