<svg width="160" height="160" viewBox="0 0 160 160" fill="none" xmlns="http://www.w3.org/2000/svg">
<g clip-path="url(#clip0_145_5463)">
<path d="M79.6074 95.9984C100.272 95.9984 117.023 79.2307 117.023 58.5468C117.023 37.8629 100.272 21.0952 79.6074 21.0952C58.9431 21.0952 42.1914 37.8629 42.1914 58.5468C42.1914 79.2307 58.9431 95.9984 79.6074 95.9984Z" fill="url(#paint0_linear_145_5463)"/>
<path d="M65.8047 89.7545C65.8245 89.8734 65.8482 89.9884 65.872 90.1073C65.6106 89.9923 65.3531 89.8774 65.0957 89.7545H65.8047Z" fill="white"/>
<path d="M94.107 89.7624C92.8198 90.365 91.493 90.8883 90.1265 91.3243C87.3462 92.2203 84.4074 92.7674 81.3617 92.922C81.0607 92.9379 80.7636 92.9497 80.4587 92.9537C80.1775 92.9616 79.8923 92.9656 79.6071 92.9656C79.3972 92.9656 79.1873 92.9656 78.9734 92.9577C78.7833 91.9349 78.6209 90.8645 78.4902 89.7545H92.3168V89.7624H94.103H94.107Z" fill="white"/>
<path d="M85.0656 59.4388C82.4437 65.9007 78.7207 77.4886 80.7248 89.7545H78.4989C78.2296 87.4036 78.1108 84.8664 78.2296 82.1626C78.7089 71.1535 82.8437 63.1455 85.0696 59.4388H85.0656Z" fill="url(#paint1_linear_145_5463)"/>
<path d="M113.995 58.5468C113.995 66.1465 111.535 73.1675 107.369 78.8603C104.129 83.2925 99.8553 86.9199 94.8966 89.3818C95.9383 86.0953 95.9937 83.3401 95.6412 81.0725C94.2669 72.2874 85.8664 65.7065 88.6428 58.5032C89.4033 56.5369 90.7261 55.2167 91.6371 54.4556C88.2349 55.3555 83.1534 57.2029 78.3611 61.2941C70.7487 67.7838 64.0632 79.7365 65.8099 89.7545H65.1009C65.0138 89.7188 64.9266 89.6752 64.8435 89.6316C60.7046 87.6613 57.0173 84.8822 53.9953 81.4966C52.7834 80.1448 51.6784 78.6978 50.6922 77.1636C47.2345 71.7958 45.2305 65.4052 45.2305 58.5428C45.2305 51.6805 47.2385 45.2939 50.6922 39.9261C54.1656 34.5305 59.1045 30.1737 64.9464 27.4105C69.3942 25.3014 74.3688 24.128 79.6166 24.128C84.8644 24.128 90.0805 25.3649 94.6075 27.5651C99.685 30.031 104.069 33.7099 107.369 38.2293C111.535 43.9222 113.995 50.9431 113.995 58.5389V58.5468Z" fill="url(#paint2_linear_145_5463)"/>
<path d="M65.7299 28.5482V62.5706C65.5715 62.7688 65.4091 62.9631 65.2507 63.1613C65.1042 63.3437 64.9576 63.526 64.815 63.7084C64.7952 63.7361 64.7715 63.7639 64.7556 63.7877C64.6051 63.974 64.4586 64.1603 64.316 64.3467C63.8566 64.9413 63.409 65.536 62.9733 66.1267C62.8268 66.3249 62.6803 66.5231 62.5416 66.7253C62.407 66.9116 62.2684 67.1059 62.1377 67.2922C61.8485 67.7005 61.5673 68.1089 61.2901 68.5132C61.1554 68.7115 61.0168 68.9097 60.8861 69.1119C60.7514 69.3101 60.6168 69.5083 60.49 69.7105C58.7909 72.2953 57.2938 74.88 55.9749 77.4252C55.872 77.6234 55.7729 77.8177 55.6739 78.0119C55.3769 78.5947 55.0877 79.1814 54.8065 79.7642C54.7154 79.9505 54.6244 80.1408 54.5372 80.3271C54.3511 80.7196 54.1728 81.1121 53.9907 81.5006C52.7787 80.1487 51.6737 78.7017 50.6875 77.1675V39.93C54.161 34.5345 59.0999 30.1776 64.9418 27.4144C65.3972 27.5809 65.7299 28.017 65.7299 28.5482Z" fill="white"/>
<path d="M85.0656 59.4388C82.4437 65.9007 78.7207 77.4886 80.7248 89.7545H78.4989C78.2296 87.4036 78.1108 84.8664 78.2296 82.1626C78.7089 71.1535 82.8437 63.1455 85.0696 59.4388H85.0656Z" fill="white"/>
<path d="M107.364 38.2372V78.8603C104.124 83.2925 99.8503 86.9199 94.8916 89.3818C95.9332 86.0953 95.9886 83.34 95.6362 81.0724C94.2618 72.2873 85.8613 65.7065 88.6377 58.5032C89.3982 56.5368 90.721 55.2167 91.632 54.4555C88.2298 55.3554 83.1483 57.2028 78.356 61.2941C70.7437 67.7838 64.0581 79.7364 65.8048 89.7544H64.8899C64.8701 89.7148 64.8542 89.6712 64.8384 89.6315C60.6995 87.6612 57.0122 84.8822 53.9902 81.4966C54.1685 81.1041 54.3506 80.7156 54.5368 80.3231C54.6239 80.1368 54.715 79.9465 54.8061 79.7602C55.0834 79.1774 55.3765 78.5947 55.6735 78.0079C55.7725 77.8097 55.8715 77.6155 55.9745 77.4212C57.2934 74.8721 58.7905 72.2913 60.4896 69.7065C60.6203 69.5083 60.751 69.3061 60.8857 69.1079C61.0203 68.9097 61.151 68.7075 61.2897 68.5093C61.5669 68.1049 61.8481 67.6966 62.1372 67.2882C62.2719 67.1019 62.4066 66.9077 62.5412 66.7213C62.6838 66.5231 62.8303 66.3249 62.9729 66.1227C63.4086 65.5281 63.8561 64.9334 64.3156 64.3427C64.4582 64.1564 64.6047 63.9701 64.7552 63.7837C64.775 63.7599 64.7948 63.7322 64.8146 63.7044C64.9572 63.5221 65.1037 63.3397 65.2503 63.1574C65.4087 62.9591 65.5671 62.7649 65.7295 62.5667C66.5058 61.5201 67.4286 60.3585 68.5297 59.1533C69.4367 58.1583 70.4585 57.1315 71.6071 56.1087C72.4744 55.3316 73.4171 54.5586 74.435 53.7974C81.3423 48.6477 88.2852 46.8201 92.3172 46.0907V28.5482C92.3172 27.7593 93.0578 27.1805 93.8222 27.3748C94.0836 27.4382 94.341 27.5056 94.5985 27.573C99.676 30.0389 104.06 33.7178 107.36 38.2372H107.364Z" fill="white"/>
<path d="M94.8914 89.3818C94.63 89.5126 94.3686 89.6355 94.1032 89.7623C92.816 90.3649 91.4892 90.8882 90.1228 91.3243C87.3425 92.2203 84.4037 92.7673 81.358 92.922C81.0966 91.8635 80.8827 90.8089 80.7164 89.7584C78.7162 77.4926 82.4353 65.9047 85.0572 59.4427C82.8313 63.1494 78.7004 71.1614 78.2172 82.1666C78.0984 84.8703 78.2172 87.4075 78.4865 89.7584C78.6172 90.8684 78.7796 91.9388 78.9697 92.9616C78.5657 92.9537 78.1538 92.9418 77.7538 92.918C73.5437 92.696 69.5355 91.7168 65.868 90.1112C65.8442 89.9923 65.8244 89.8773 65.8007 89.7584C64.058 79.7404 70.7435 67.7877 78.3519 61.298C83.1442 57.2068 88.2257 55.3594 91.6279 54.4595C90.7209 55.2206 89.3941 56.5408 88.6336 58.5071C85.8572 65.7104 94.2577 72.2913 95.632 81.0764C95.9845 83.344 95.9291 86.0992 94.8874 89.3857L94.8914 89.3818Z" fill="url(#paint3_linear_145_5463)"/>
<path d="M11.5565 121.624H18.9748V122.94H10V121.624L17.2202 110.286H10.198V108.97H18.7728V110.286L11.5526 121.624H11.5565Z" fill="white"/>
<path d="M29.1455 112.962H30.4604V122.944H29.1455V120.99C28.2266 122.449 26.8919 123.186 25.1175 123.186C23.6996 123.186 22.4837 122.687 21.4698 121.668C20.4717 120.649 19.9727 119.412 19.9727 117.953C19.9727 116.494 20.4717 115.257 21.4698 114.239C22.4876 113.22 23.7036 112.72 25.1175 112.72C26.8919 112.72 28.2305 113.458 29.1455 114.916V112.962ZM25.2165 121.906C26.3136 121.906 27.2523 121.525 28.0088 120.768C28.7652 119.991 29.1455 119.051 29.1455 117.953C29.1455 116.855 28.7652 115.915 28.0088 115.158C27.2523 114.381 26.3136 114.001 25.2165 114.001C24.1194 114.001 23.1808 114.381 22.4243 115.158C21.6678 115.915 21.2876 116.855 21.2876 117.953C21.2876 119.051 21.6678 119.991 22.4243 120.768C23.1808 121.525 24.1194 121.906 25.2165 121.906Z" fill="white"/>
<path d="M41.8267 116.815V122.944H40.5118V116.815C40.5118 115.039 39.5335 114.001 37.7987 114.001C35.8858 114.001 34.5669 115.178 34.5669 117.715V122.944H33.252V108.97H34.5669V114.52C35.3036 113.323 36.4204 112.724 37.9176 112.724C40.3296 112.724 41.8267 114.322 41.8267 116.815Z" fill="white"/>
<path d="M45.6938 114.619C46.3117 113.402 47.3494 112.803 48.8465 112.803V114.08C47.0325 114.08 45.6938 115.099 45.6938 117.394V122.944H44.3789V112.962H45.6938V114.619Z" fill="white"/>
<path d="M58.6162 112.962H59.9311V122.944H58.6162V120.99C57.6973 122.449 56.3626 123.186 54.5882 123.186C53.1703 123.186 51.9544 122.687 50.9405 121.668C49.9424 120.649 49.4434 119.412 49.4434 117.953C49.4434 116.494 49.9424 115.257 50.9405 114.239C51.9584 113.22 53.1743 112.72 54.5882 112.72C56.3626 112.72 57.7013 113.458 58.6162 114.916V112.962ZM54.6872 121.906C55.7843 121.906 56.723 121.525 57.4795 120.768C58.2359 119.991 58.6162 119.051 58.6162 117.953C58.6162 116.855 58.2359 115.915 57.4795 115.158C56.723 114.381 55.7843 114.001 54.6872 114.001C53.5901 114.001 52.6515 114.381 51.895 115.158C51.1385 115.915 50.7583 116.855 50.7583 117.953C50.7583 119.051 51.1385 119.991 51.895 120.768C52.6515 121.525 53.5901 121.906 54.6872 121.906Z" fill="white"/>
<path d="M71.2978 108.97H72.6127V122.944H71.2978V120.99C70.3789 122.449 69.0442 123.186 67.2698 123.186C65.8519 123.186 64.636 122.687 63.6221 121.668C62.624 120.649 62.125 119.412 62.125 117.953C62.125 116.494 62.624 115.257 63.6221 114.239C64.64 113.22 65.8559 112.72 67.2698 112.72C69.0442 112.72 70.3829 113.458 71.2978 114.916V108.966V108.97ZM67.3689 121.906C68.466 121.906 69.4046 121.525 70.1611 120.768C70.9176 119.991 71.2978 119.051 71.2978 117.953C71.2978 116.855 70.9176 115.915 70.1611 115.158C69.4046 114.381 68.466 114.001 67.3689 114.001C66.2718 114.001 65.3331 114.381 64.5766 115.158C63.8201 115.915 63.4399 116.855 63.4399 117.953C63.4399 119.051 63.8201 119.991 64.5766 120.768C65.3331 121.525 66.2718 121.906 67.3689 121.906Z" fill="white"/>
<path d="M82.5818 112.962H83.976L79.7064 123.86C78.9301 125.838 77.433 127.075 75.6785 126.932V125.696C76.8746 125.834 77.7935 125.137 78.4113 123.618L78.6688 123L74.2012 112.958H75.5993L79.35 121.323L82.5818 112.958V112.962Z" fill="white"/>
<path d="M92.9517 108.97H96.144V122.944H92.9517V117.394H88.5634V122.944H85.3711V108.97H88.5634V114.322H92.9517V108.97Z" fill="#127C00"/>
<path d="M105.673 112.962H108.663V122.944H105.673V122.005C104.976 122.821 103.977 123.222 102.702 123.222C101.427 123.222 100.27 122.722 99.3317 121.703C98.393 120.685 97.9336 119.428 97.9336 117.949C97.9336 116.47 98.393 115.234 99.3317 114.215C100.27 113.196 101.387 112.677 102.702 112.677C104.017 112.677 104.976 113.077 105.673 113.894V112.954V112.962ZM103.3 120.387C103.997 120.387 104.576 120.169 105.015 119.729C105.455 119.289 105.673 118.69 105.673 117.953C105.673 117.216 105.455 116.617 105.015 116.177C104.576 115.737 103.997 115.519 103.3 115.519C102.603 115.519 102.025 115.737 101.585 116.177C101.146 116.617 100.928 117.216 100.928 117.953C100.928 118.69 101.146 119.289 101.585 119.729C102.025 120.169 102.603 120.387 103.3 120.387Z" fill="#127C00"/>
<path d="M124.775 113.818C125.472 114.556 125.813 115.555 125.813 116.811V122.94H122.822V117.073C122.822 116.054 122.323 115.436 121.389 115.436C120.454 115.436 119.832 116.133 119.832 117.311V122.94H116.842V117.073C116.842 116.054 116.343 115.436 115.408 115.436C114.473 115.436 113.852 116.133 113.852 117.311V122.94H110.861V112.958H113.852V113.878C114.39 113.081 115.289 112.68 116.525 112.68C117.682 112.68 118.561 113.121 119.139 113.997C119.757 113.117 120.715 112.68 122.03 112.68C123.167 112.68 124.086 113.061 124.783 113.818H124.775Z" fill="#127C00"/>
<path d="M129.123 111.963L127.008 108.97H129.899L130.596 110.068L131.293 108.97H134.184L132.069 111.963H129.119H129.123ZM130.858 114.738C131.238 113.462 132.493 112.76 133.848 112.76V116.153C133.111 116.034 132.434 116.153 131.792 116.534C131.174 116.895 130.854 117.533 130.854 118.429V122.94H127.863V112.958H130.854V114.734L130.858 114.738Z" fill="#127C00"/>
<path d="M136.042 108.97H139.432L138.118 111.963H135.246L136.042 108.97ZM138.236 122.944V112.962H135.246V122.944H138.236Z" fill="#127C00"/>
<path d="M150.001 122.944H146.61L143.418 118.532V122.944H140.428V108.97H143.418V117.335L146.408 112.962H149.898L146.27 117.953L150.001 122.944Z" fill="#127C00"/>
<path d="M30.3463 137.581C29.5384 137.581 28.8571 137.299 28.2947 136.74C27.7323 136.17 27.4551 135.488 27.4551 134.687C27.4551 133.886 27.7363 133.204 28.2947 132.641C28.8571 132.07 29.5384 131.793 30.3463 131.793C31.1543 131.793 31.8355 132.074 32.3979 132.641C32.9603 133.204 33.2376 133.886 33.2376 134.687C33.2376 135.488 32.9564 136.17 32.3979 136.74C31.8355 137.303 31.1543 137.581 30.3463 137.581ZM30.3463 137.173C31.0355 137.173 31.6216 136.931 32.093 136.451C32.5722 135.963 32.8138 135.377 32.8138 134.687C32.8138 133.997 32.5722 133.41 32.093 132.931C31.6216 132.443 31.0355 132.201 30.3463 132.201C29.6572 132.201 29.071 132.443 28.5918 132.931C28.1205 133.41 27.8789 133.997 27.8789 134.687C27.8789 135.377 28.1205 135.963 28.5918 136.451C29.071 136.931 29.6572 137.173 30.3463 137.173Z" fill="white"/>
<path d="M37.767 131.876H38.167V137.49H37.767V136.558C37.4383 137.192 36.8046 137.577 36.0441 137.577C35.4659 137.577 34.9787 137.375 34.5708 136.974C34.1707 136.566 33.9688 136.066 33.9688 135.484C33.9688 134.901 34.1707 134.401 34.5708 134.001C34.9787 133.593 35.4698 133.39 36.0441 133.39C36.8046 133.39 37.4383 133.775 37.767 134.409V131.876ZM36.0679 137.192C36.5392 137.192 36.9432 137.026 37.2679 136.697C37.5927 136.368 37.763 135.959 37.763 135.484C37.763 135.008 37.5967 134.6 37.2679 134.275C36.9392 133.946 36.5392 133.779 36.0679 133.779C35.5966 133.779 35.1847 133.946 34.8559 134.275C34.5272 134.604 34.3688 135.012 34.3688 135.484C34.3688 135.955 34.5312 136.368 34.8559 136.697C35.1847 137.026 35.5926 137.192 36.0679 137.192Z" fill="white"/>
<path d="M44.6124 137.494H44.0659L41.943 135.519V137.494H41.543V131.88H41.943V135.305L43.9708 133.486H44.5332L42.3787 135.412L44.6124 137.498V137.494Z" fill="white"/>
<path d="M45.3482 136.978C44.9403 136.57 44.7383 136.07 44.7383 135.488C44.7383 134.905 44.9403 134.405 45.3482 134.005C45.7562 133.597 46.2631 133.394 46.8453 133.394C47.4275 133.394 47.9187 133.597 48.3266 134.005C48.7345 134.405 48.9445 134.905 48.9445 135.488C48.9445 136.07 48.7345 136.57 48.3266 136.978C47.9187 137.379 47.4275 137.581 46.8453 137.581C46.2631 137.581 45.7562 137.379 45.3482 136.978ZM46.8453 137.196C47.3166 137.196 47.7206 137.03 48.0454 136.701C48.3702 136.372 48.5326 135.963 48.5326 135.488C48.5326 135.012 48.3741 134.604 48.0454 134.278C47.7167 133.949 47.3166 133.783 46.8453 133.783C46.374 133.783 45.9621 133.949 45.6334 134.278C45.3047 134.608 45.1462 135.016 45.1462 135.488C45.1462 135.959 45.3086 136.372 45.6334 136.701C45.9621 137.03 46.3701 137.196 46.8453 137.196Z" fill="white"/>
<path d="M50.5334 132.919L49.666 131.9H50.1294L50.771 132.661L51.4126 131.9H51.876L51.0126 132.919H50.5334ZM50.3076 134.267C50.5492 133.704 50.9968 133.426 51.6463 133.426V133.811C50.8859 133.811 50.3076 134.298 50.3076 135.262V137.49H49.9076V133.478H50.3076V134.263V134.267Z" fill="white"/>
<path d="M52.8811 131.9H53.3682L52.8296 132.919H52.4375L52.8771 131.9H52.8811ZM52.8573 137.49V133.478H52.4573V137.49H52.8573Z" fill="white"/>
<path d="M57.484 134.996V137.49H57.076V134.996C57.076 134.251 56.6443 133.775 55.8997 133.775C55.0759 133.775 54.4977 134.338 54.4977 135.373V137.49H54.0977V133.478H54.4977V134.239C54.7868 133.668 55.266 133.39 55.9314 133.39C56.8859 133.39 57.4879 134.025 57.4879 134.996H57.484Z" fill="white"/>
<path d="M61.6828 137.494H61.1362L59.0133 135.519V137.494H58.6133V131.88H59.0133V135.305L61.0411 133.486H61.6035L59.449 135.412L61.6828 137.498V137.494Z" fill="white"/>
<path d="M65.211 133.482H65.611V137.494H65.211V136.732C64.9218 137.303 64.4426 137.581 63.7772 137.581C62.8227 137.581 62.2207 136.947 62.2207 135.975V133.482H62.6286V135.975C62.6286 136.721 63.0604 137.196 63.805 137.196C64.6288 137.196 65.207 136.633 65.207 135.599V133.482H65.211ZM63.0881 132.276C63.0881 131.829 63.4247 131.499 63.904 131.499C64.3832 131.499 64.7278 131.829 64.7278 132.276C64.7278 132.724 64.3911 133.053 63.904 133.053C63.4168 133.053 63.0881 132.724 63.0881 132.276ZM63.4327 132.276C63.4327 132.542 63.6148 132.732 63.904 132.732C64.5456 132.78 64.5456 131.769 63.904 131.817C63.6148 131.817 63.4327 132.011 63.4327 132.273V132.276Z" fill="white"/>
<path d="M72.5747 134.001C72.9826 134.401 73.1846 134.901 73.1846 135.484C73.1846 136.066 72.9826 136.566 72.5747 136.974C72.1667 137.383 71.6835 137.577 71.1092 137.577C70.3488 137.577 69.7151 137.192 69.3864 136.558V139.091H68.9863V133.478H69.3864V134.409C69.7151 133.775 70.3488 133.39 71.1092 133.39C71.6875 133.39 72.1746 133.593 72.5747 134.001ZM71.0855 137.192C71.5568 137.192 71.9608 137.026 72.2895 136.697C72.6182 136.368 72.7846 135.959 72.7846 135.484C72.7846 135.008 72.6182 134.6 72.2895 134.274C71.9608 133.945 71.5607 133.779 71.0855 133.779C70.6102 133.779 70.2022 133.945 69.8775 134.274C69.5487 134.604 69.3903 135.012 69.3903 135.484C69.3903 135.955 69.5487 136.368 69.8775 136.697C70.2062 137.026 70.6141 137.192 71.0855 137.192Z" fill="white"/>
<path d="M74.4908 136.978C74.0829 136.57 73.8809 136.07 73.8809 135.488C73.8809 134.905 74.0829 134.405 74.4908 134.005C74.8987 133.597 75.4057 133.394 75.9879 133.394C76.5701 133.394 77.0612 133.597 77.4692 134.005C77.8771 134.405 78.087 134.905 78.087 135.488C78.087 136.07 77.8771 136.57 77.4692 136.978C77.0612 137.379 76.5701 137.581 75.9879 137.581C75.4057 137.581 74.8987 137.379 74.4908 136.978ZM75.9879 137.196C76.4592 137.196 76.8632 137.03 77.188 136.701C77.5128 136.372 77.6751 135.963 77.6751 135.488C77.6751 135.012 77.5167 134.604 77.188 134.278C76.8592 133.949 76.4592 133.783 75.9879 133.783C75.5166 133.783 75.1047 133.949 74.776 134.278C74.4472 134.608 74.2888 135.016 74.2888 135.488C74.2888 135.959 74.4512 136.372 74.776 136.701C75.1047 137.03 75.5126 137.196 75.9879 137.196Z" fill="white"/>
<path d="M84.7797 134.001C85.1877 134.401 85.3897 134.901 85.3897 135.484C85.3897 136.066 85.1877 136.566 84.7797 136.974C84.3718 137.383 83.8886 137.577 83.3143 137.577C82.5539 137.577 81.9202 137.192 81.5914 136.558V139.091H81.1914V133.478H81.5914V134.409C81.9202 133.775 82.5539 133.39 83.3143 133.39C83.8925 133.39 84.3797 133.593 84.7797 134.001ZM83.2905 137.192C83.7618 137.192 84.1658 137.026 84.4946 136.697C84.8233 136.368 84.9896 135.959 84.9896 135.484C84.9896 135.008 84.8233 134.6 84.4946 134.274C84.1658 133.945 83.7658 133.779 83.2905 133.779C82.8153 133.779 82.4073 133.945 82.0825 134.274C81.7538 134.604 81.5954 135.012 81.5954 135.484C81.5954 135.955 81.7538 136.368 82.0825 136.697C82.4113 137.026 82.8192 137.192 83.2905 137.192Z" fill="white"/>
<path d="M86.6978 136.978C86.2899 136.57 86.0879 136.07 86.0879 135.488C86.0879 134.905 86.2899 134.405 86.6978 134.005C87.1058 133.597 87.6127 133.394 88.1949 133.394C88.7771 133.394 89.2683 133.597 89.6762 134.005C90.0842 134.405 90.2941 134.905 90.2941 135.488C90.2941 136.07 90.0842 136.57 89.6762 136.978C89.2683 137.379 88.7771 137.581 88.1949 137.581C87.6127 137.581 87.1058 137.379 86.6978 136.978ZM88.1949 137.196C88.6663 137.196 89.0702 137.03 89.395 136.701C89.7198 136.372 89.8822 135.963 89.8822 135.488C89.8822 135.012 89.7237 134.604 89.395 134.278C89.0663 133.949 88.6663 133.783 88.1949 133.783C87.7236 133.783 87.3117 133.949 86.983 134.278C86.6543 134.608 86.4958 135.016 86.4958 135.488C86.4958 135.959 86.6582 136.372 86.983 136.701C87.3117 137.03 87.7197 137.196 88.1949 137.196Z" fill="white"/>
<path d="M92.31 135.254C93.0071 135.404 93.8824 135.583 93.8824 136.443C93.8824 137.109 93.3041 137.581 92.4486 137.581C91.6803 137.581 91.1258 137.228 90.9277 136.689L91.2723 136.487C91.4228 136.927 91.8506 137.192 92.4486 137.192C93.0467 137.192 93.4823 136.919 93.4823 136.439C93.4823 136.047 93.1061 135.813 92.6229 135.71C91.9258 135.543 91.0505 135.373 91.0505 134.532C91.0505 134.211 91.1773 133.938 91.4268 133.723C91.6842 133.505 92.0129 133.394 92.413 133.394C93.0546 133.394 93.5497 133.708 93.7754 134.195L93.4388 134.389C93.2803 133.997 92.8684 133.779 92.413 133.779C91.8664 133.779 91.4505 134.076 91.4505 134.532C91.4505 134.925 91.8268 135.135 92.31 135.254Z" fill="white"/>
<path d="M94.8086 137.494V131.638H95.2086V137.494H94.8086Z" fill="white"/>
<path d="M99.677 134.017C100.045 134.433 100.231 134.933 100.231 135.499C100.231 135.539 100.224 135.65 100.224 135.694H96.5916C96.6392 136.142 96.8174 136.502 97.1303 136.784C97.4432 137.058 97.8353 137.192 98.2908 137.192C98.9324 137.192 99.4274 136.903 99.677 136.463L100.029 136.673C99.7007 137.228 99.0591 137.581 98.2828 137.581C97.665 137.581 97.162 137.387 96.7699 136.994C96.3778 136.602 96.1758 136.094 96.1758 135.488C96.1758 134.881 96.3698 134.389 96.754 133.997C97.1461 133.597 97.6452 133.394 98.2511 133.394C98.8571 133.394 99.3166 133.605 99.677 134.021V134.017ZM97.1144 134.199C96.8095 134.481 96.6352 134.849 96.5916 135.297H99.8116C99.772 134.826 99.5938 134.449 99.3007 134.183C99.0037 133.91 98.6591 133.775 98.2511 133.775C97.7957 133.775 97.4194 133.918 97.1144 134.199Z" fill="white"/>
<path d="M104.699 131.876H105.099V137.49H104.699V136.558C104.37 137.192 103.736 137.577 102.976 137.577C102.398 137.577 101.91 137.375 101.502 136.974C101.102 136.566 100.9 136.066 100.9 135.484C100.9 134.901 101.102 134.401 101.502 134.001C101.902 133.601 102.401 133.39 102.976 133.39C103.736 133.39 104.37 133.775 104.699 134.409V131.876ZM103 137.192C103.471 137.192 103.875 137.026 104.204 136.697C104.532 136.368 104.699 135.959 104.699 135.484C104.699 135.008 104.528 134.6 104.204 134.275C103.875 133.946 103.475 133.779 103 133.779C102.524 133.779 102.116 133.946 101.792 134.275C101.463 134.604 101.304 135.012 101.304 135.484C101.304 135.955 101.463 136.368 101.792 136.697C102.12 137.026 102.528 137.192 103 137.192Z" fill="white"/>
<path d="M109.724 134.996V137.49H109.316V134.996C109.316 134.251 108.885 133.775 108.14 133.775C107.316 133.775 106.738 134.338 106.738 135.373V137.49H106.338V133.478H106.738V134.239C107.027 133.668 107.506 133.39 108.172 133.39C109.126 133.39 109.728 134.025 109.728 134.996H109.724Z" fill="white"/>
<path d="M111.281 131.9H111.769L111.23 132.919H110.838L111.278 131.9H111.281ZM111.258 137.49V133.478H110.858V137.49H111.258Z" fill="white"/>
<path d="M114.631 137.494V131.638H115.031V137.494H114.631Z" fill="white"/>
<path d="M116.692 131.9H117.179L116.64 132.919H116.248L116.688 131.9H116.692ZM116.668 137.49V133.478H116.268V137.49H116.668Z" fill="white"/>
<path d="M119.033 135.254C119.73 135.404 120.605 135.583 120.605 136.443C120.605 137.109 120.027 137.581 119.171 137.581C118.403 137.581 117.848 137.228 117.65 136.689L117.995 136.487C118.145 136.927 118.573 137.192 119.171 137.192C119.769 137.192 120.205 136.919 120.205 136.439C120.205 136.047 119.829 135.813 119.346 135.71C118.648 135.543 117.777 135.373 117.777 134.532C117.777 134.211 117.904 133.938 118.153 133.723C118.411 133.505 118.74 133.394 119.14 133.394C119.781 133.394 120.276 133.708 120.502 134.195L120.165 134.389C120.003 133.997 119.595 133.779 119.14 133.779C118.593 133.779 118.177 134.076 118.177 134.532C118.177 134.925 118.553 135.135 119.033 135.254Z" fill="white"/>
<path d="M123.464 133.874H122.268V136.483C122.268 137.18 122.644 137.212 123.464 137.133V137.494C122.383 137.652 121.86 137.375 121.86 136.483V133.874H120.977V133.482H121.86V132.479L122.268 132.36V133.482H123.464V133.874Z" fill="white"/>
<path d="M127.413 134.017C127.782 134.433 127.968 134.933 127.968 135.499C127.968 135.539 127.96 135.65 127.96 135.694H124.328C124.376 136.142 124.554 136.502 124.867 136.784C125.18 137.058 125.572 137.192 126.027 137.192C126.669 137.192 127.164 136.903 127.413 136.463L127.766 136.673C127.437 137.228 126.795 137.581 126.019 137.581C125.401 137.581 124.898 137.387 124.506 136.994C124.114 136.602 123.912 136.094 123.912 135.488C123.912 134.881 124.106 134.389 124.49 133.997C124.882 133.597 125.382 133.394 125.987 133.394C126.593 133.394 127.053 133.605 127.413 134.021V134.017ZM124.851 134.199C124.546 134.481 124.372 134.849 124.332 135.297H127.552C127.512 134.826 127.334 134.449 127.041 134.183C126.744 133.91 126.399 133.775 125.991 133.775C125.536 133.775 125.16 133.918 124.855 134.199H124.851Z" fill="white"/>
<path d="M131.976 137.494H131.429L129.306 135.519V137.494H128.906V131.88H129.306V135.305L131.334 133.486H131.897L129.742 135.412L131.976 137.498V137.494Z" fill="white"/>
</g>
<defs>
<linearGradient id="paint0_linear_145_5463" x1="42.1914" y1="58.5468" x2="117.023" y2="58.5468" gradientUnits="userSpaceOnUse">
<stop offset="0.28" stop-color="#1C9608"/>
<stop offset="0.62" stop-color="#188C05"/>
<stop offset="1" stop-color="#127C00"/>
</linearGradient>
<linearGradient id="paint1_linear_145_5463" x1="78.1781" y1="74.5946" x2="85.0656" y2="74.5946" gradientUnits="userSpaceOnUse">
<stop offset="0.28" stop-color="#1C9608"/>
<stop offset="0.62" stop-color="#188C05"/>
<stop offset="1" stop-color="#127C00"/>
</linearGradient>
<linearGradient id="paint2_linear_145_5463" x1="45.2265" y1="56.9452" x2="113.995" y2="56.9452" gradientUnits="userSpaceOnUse">
<stop offset="0.28" stop-color="#1C9608"/>
<stop offset="0.62" stop-color="#188C05"/>
<stop offset="1" stop-color="#127C00"/>
</linearGradient>
<linearGradient id="paint3_linear_145_5463" x1="65.5234" y1="73.7105" x2="95.834" y2="73.7105" gradientUnits="userSpaceOnUse">
<stop offset="0.28" stop-color="#1C9608"/>
<stop offset="0.62" stop-color="#188C05"/>
<stop offset="1" stop-color="#127C00"/>
</linearGradient>
<clipPath id="clip0_145_5463">
<rect width="140" height="118" fill="white" transform="translate(10 21.0952)"/>
</clipPath>
</defs>
</svg>
