<svg width="160" height="160" viewBox="0 0 160 160" fill="none" xmlns="http://www.w3.org/2000/svg">
<g clip-path="url(#clip0_145_8817)">
<path d="M20.4617 60.7647L15.725 84.7391L14.2697 92.1131C14.0234 93.3605 12.7699 94.1443 11.5342 93.8241L2.66214 91.5236C1.45302 91.2101 0.74086 89.9627 1.09139 88.7683L8.20855 64.4958C8.30172 64.1757 8.4659 63.8865 8.6811 63.648C8.96729 63.3257 9.34667 63.0895 9.77929 62.9769L18.9198 60.6079C19.45 60.4688 19.9958 60.5351 20.4617 60.7647Z" fill="url(#paint0_linear_145_8817)"/>
<path d="M44.8627 54.0066C45.5216 54.0552 45.9498 54.7219 45.7524 55.3489L37.7411 80.531L32.4454 97.1778C32.106 98.2463 30.9834 98.8645 29.8918 98.5819L20.5584 96.1622C19.8639 95.9834 19.3093 95.4645 19.083 94.7889L15.7263 84.7413L8.91755 64.3523C8.75115 63.8556 8.97745 63.2992 9.45888 63.0895C9.56315 63.0453 9.66964 63.0078 9.78057 62.9791L18.921 60.6101C19.4513 60.471 19.9971 60.5372 20.463 60.7669C20.8556 60.9589 21.1906 61.268 21.4147 61.6676L25.6721 69.2293C26.0693 69.9336 27.0876 69.9358 27.4847 69.2293L34.2203 57.3382C34.3489 57.1085 34.5153 56.9076 34.7106 56.7421C34.9635 56.5279 35.263 56.3711 35.5913 56.285L44.1372 54.0706C44.1372 54.0706 44.1528 54.0662 44.1594 54.0662C44.3968 54.0088 44.6342 53.9889 44.8649 54.0066H44.8627Z" fill="url(#paint1_linear_145_8817)"/>
<path d="M55.0554 104.927L41.8195 101.496C40.9409 101.269 40.2909 100.534 40.1777 99.6373L37.7418 80.531L34.709 56.7421C34.9619 56.5279 35.2614 56.3712 35.5898 56.2851L44.1379 54.0707C44.1379 54.0707 44.1534 54.0662 44.1601 54.0662C44.8389 53.8985 45.5223 54.0596 46.0392 54.4504C46.4363 54.7507 46.7358 55.1834 46.8578 55.7066L57.7754 102.289C58.1548 103.907 56.6705 105.344 55.0554 104.927Z" fill="url(#paint2_linear_145_8817)"/>
<path d="M63.5293 65.9795H69.3641L74.3892 78.884L79.4142 65.9795H85.249V88.5608H80.062V76.6255L76.2372 86.4965H72.5411L68.7163 76.6255V88.5608H63.5293V65.9795Z" fill="white"/>
<path d="M92.2512 64.0764C94.066 64.0764 95.4282 65.4628 95.4282 67.2379C95.4282 69.013 94.066 70.3995 92.2512 70.3995C90.4364 70.3995 89.0742 69.013 89.0742 67.2379C89.0742 65.4628 90.4364 64.0764 92.2512 64.0764ZM89.5934 72.3026H94.909V88.5608H89.5934V72.3026Z" fill="white"/>
<path d="M103.79 70.883H97.6309V65.9795H115.719V70.883H109.56V88.5608H103.79V70.883Z" fill="white"/>
<path d="M121.103 64.0764C122.918 64.0764 124.28 65.4628 124.28 67.2379C124.28 69.013 122.918 70.3995 121.103 70.3995C119.288 70.3995 117.926 69.013 117.926 67.2379C117.926 65.4628 119.288 64.0764 121.103 64.0764ZM118.445 72.3026H123.761V88.5608H118.445V72.3026Z" fill="white"/>
<path d="M128.104 65.9795H133.938L138.963 78.884L143.988 65.9795H149.823V88.5608H144.636V76.6255L140.811 86.4965H137.115L133.291 76.6255V88.5608H128.104V65.9795Z" fill="white"/>
<path d="M156.823 64.0764C158.638 64.0764 160 65.4628 160 67.2379C160 69.013 158.638 70.3995 156.823 70.3995C155.009 70.3995 153.646 69.013 153.646 67.2379C153.646 65.4628 155.009 64.0764 156.823 64.0764ZM154.166 72.3026H159.481V88.5608H154.166V72.3026Z" fill="white"/>
</g>
<defs>
<linearGradient id="paint0_linear_145_8817" x1="5.20239" y1="88.1082" x2="15.1884" y2="71.8287" gradientUnits="userSpaceOnUse">
<stop stop-color="#39AEF6"/>
<stop offset="0.39" stop-color="#2598E7"/>
<stop offset="1" stop-color="#0070CD"/>
</linearGradient>
<linearGradient id="paint1_linear_145_8817" x1="12.028" y1="86.088" x2="43.0731" y2="66.1603" gradientUnits="userSpaceOnUse">
<stop stop-color="#39AEF6"/>
<stop offset="0.19" stop-color="#30A4EF"/>
<stop offset="0.52" stop-color="#198BDF"/>
<stop offset="0.8" stop-color="#0070CD"/>
</linearGradient>
<linearGradient id="paint2_linear_145_8817" x1="34.709" y1="79.5" x2="57.8353" y2="79.5" gradientUnits="userSpaceOnUse">
<stop stop-color="#39AEF6"/>
<stop offset="0.24" stop-color="#30A4EF"/>
<stop offset="0.65" stop-color="#198BDF"/>
<stop offset="1" stop-color="#0070CD"/>
</linearGradient>
<clipPath id="clip0_145_8817">
<rect width="159" height="51" fill="white" transform="translate(1 54)"/>
</clipPath>
</defs>
</svg>
