<svg width="160" height="160" viewBox="0 0 160 160" fill="none" xmlns="http://www.w3.org/2000/svg">
<g clip-path="url(#clip0_145_9338)">
<path d="M80.1301 107.151C101.8 107.151 119.368 89.6563 119.368 68.0755C119.368 46.4947 101.8 29 80.1301 29C58.4598 29 40.8926 46.4947 40.8926 68.0755C40.8926 89.6563 58.4598 107.151 80.1301 107.151Z" fill="white"/>
<path d="M69.5526 81.7007V105.746C63.5732 104.084 58.167 101.048 53.707 97.0046V68.0721C57.1359 74.243 62.6982 79.1472 69.5526 81.6973V81.7007Z" fill="url(#paint0_linear_145_9338)"/>
<path d="M100.989 84.2238C101.607 83.4334 102.18 82.6127 102.706 81.7581C105.226 77.6442 106.555 72.9122 106.555 68.0755C106.555 53.5653 94.7014 41.7606 80.131 41.7606C65.5607 41.7606 53.707 53.5653 53.707 68.0755C53.707 80.2585 62.064 90.5331 73.3682 93.5156L101.78 100.71C106.603 97.5349 110.676 93.3264 113.691 88.4019C113.861 88.1249 114.027 87.8446 114.186 87.5642L100.993 84.2238H100.989ZM69.5526 68.0721C69.5526 62.2626 74.2975 57.5373 80.131 57.5373C85.9646 57.5373 90.7095 62.2626 90.7095 68.0721C90.7095 70.0108 90.1804 71.9023 89.1731 73.5438C88.2946 74.9827 87.0635 76.2054 85.6187 77.0835C83.9737 78.0833 82.0744 78.6102 80.1277 78.6102C74.2941 78.6102 69.5492 73.8849 69.5492 68.0755L69.5526 68.0721Z" fill="url(#paint1_linear_145_9338)"/>
<path d="M44.4273 118.881H48.7957C49.6572 118.881 50.3592 119.577 50.3592 120.438C50.3592 121.293 49.664 121.989 48.8059 121.995L44.4375 122.019C43.5726 122.023 42.8672 121.327 42.8672 120.462V120.438C42.8672 119.581 43.5659 118.881 44.4307 118.881H44.4273Z" fill="white"/>
<path d="M41.5143 124.968C41.4703 125.046 41.4262 125.12 41.3787 125.198C40.5545 126.542 39.4421 127.69 38.1261 128.558L30.3695 126.596L30.2305 122.114L41.5143 124.971V124.968Z" fill="white"/>
<path d="M32.2139 126.832C28.2356 126.832 25 123.61 25 119.648C25 115.686 28.2356 112.464 32.2139 112.464C36.1923 112.464 39.4279 115.686 39.4279 119.648C39.4279 120.969 39.065 122.262 38.3765 123.384C37.7796 124.36 36.9452 125.191 35.9617 125.789C34.8323 126.474 33.5367 126.836 32.2106 126.836L32.2139 126.832ZM32.2139 116.77C30.6199 116.77 29.3243 118.061 29.3243 119.648C29.3243 121.236 30.6199 122.526 32.2139 122.526C32.7464 122.526 33.262 122.381 33.713 122.11C34.1065 121.871 34.4422 121.536 34.683 121.144C34.9578 120.695 35.1036 120.178 35.1036 119.651C35.1036 118.064 33.808 116.774 32.2139 116.774V116.77Z" fill="white"/>
<path d="M71.696 119.415C72.0826 118.101 73.3409 117.334 74.7383 117.334V121.053C73.9684 120.932 73.2561 121.073 72.6287 121.479C72.0012 121.884 71.696 122.549 71.696 123.458V127.64H68.3281V117.537H71.696V119.415Z" fill="white"/>
<path d="M77.1112 126.386C76.0564 125.356 75.5273 124.083 75.5273 122.587C75.5273 121.09 76.053 119.837 77.1112 118.807C78.1694 117.777 79.4447 117.25 80.9471 117.25C82.4496 117.25 83.7486 117.777 84.783 118.807C85.8378 119.837 86.3669 121.09 86.3669 122.587C86.3669 124.083 85.8378 125.356 84.783 126.386C83.7486 127.417 82.47 127.923 80.9471 127.923C79.4243 127.923 78.166 127.417 77.1112 126.386ZM82.9957 122.587C82.9957 121.354 82.1444 120.486 80.9471 120.486C79.7499 120.486 78.919 121.354 78.919 122.587C78.919 123.819 79.7906 124.687 80.9471 124.687C82.1037 124.687 82.9957 123.819 82.9957 122.587Z" fill="white"/>
<path d="M88.111 117.537H91.4789V127.64C91.4789 130.811 89.9561 132.165 86.6289 131.983V128.872C87.6633 128.933 88.111 128.548 88.111 127.64V117.537ZM88.4163 116.142C87.6667 115.355 87.6667 114.163 88.4163 113.413C89.2065 112.667 90.4038 112.667 91.1567 113.413C91.9469 114.159 91.9469 115.352 91.1567 116.142C90.4072 116.889 89.2099 116.889 88.4163 116.142Z" fill="white"/>
<path d="M96.6716 123.819C97.0176 124.647 97.7671 125.052 98.944 125.052C99.6732 125.052 100.284 124.809 100.789 124.346L103.224 126.045C102.23 127.298 100.769 127.923 98.8626 127.923C97.1363 127.923 95.7593 127.417 94.7248 126.427C93.6904 125.417 93.1816 124.144 93.1816 122.607C93.1816 121.07 93.6904 119.817 94.7045 118.787C95.7186 117.757 97.0175 117.25 98.5811 117.25C100.145 117.25 101.342 117.757 102.336 118.767C103.329 119.776 103.818 121.05 103.818 122.566C103.818 123.012 103.777 123.434 103.675 123.819H96.675H96.6716ZM100.528 121.496C100.263 120.547 99.6155 120.08 98.6218 120.08C97.628 120.08 96.9158 120.547 96.6343 121.496H100.531H100.528Z" fill="white"/>
<path d="M115.543 127.64H111.768L108.885 123.336V127.64H105.518V113.494H108.885V121.759L111.504 117.537H115.401L111.992 122.59L115.543 127.643V127.64Z" fill="white"/>
<path d="M122.867 120.749H120.758V123.681C120.758 124.569 121.345 124.691 122.867 124.61V127.639C120.86 127.883 119.439 127.7 118.608 127.092C117.797 126.467 117.39 125.353 117.39 123.759V120.749H115.867V117.537H117.39V115.72L120.758 114.71V117.54H122.867V120.753V120.749Z" fill="white"/>
<path d="M131.267 117.537H135.001L131.531 127.481C130.456 130.531 128.55 131.824 125.403 131.683V128.531C126.844 128.531 127.451 128.227 127.919 127.319L123.859 117.537H127.634L129.683 123.397L131.267 117.537Z" fill="white"/>
<path d="M60.5982 112.461C57.2439 112.461 54.5137 115.18 54.5137 118.52V125.802C54.5137 126.049 54.5612 126.278 54.6595 126.501C54.7545 126.721 54.8867 126.91 55.0495 127.075C55.2157 127.238 55.4091 127.369 55.6363 127.461C55.8635 127.552 56.0976 127.596 56.3451 127.596C56.5927 127.596 56.8301 127.552 57.054 127.461C57.2812 127.366 57.4745 127.238 57.6407 127.075C57.8069 126.91 57.9358 126.721 58.0274 126.501C58.1223 126.282 58.1664 126.049 58.1664 125.802V125.096H58.163V124.073C58.4479 124.198 58.7396 124.299 59.0415 124.38C59.0516 124.38 59.0618 124.384 59.072 124.39H59.0957C59.5773 124.519 60.0793 124.583 60.5982 124.583C61.7174 124.583 62.8095 124.279 63.7626 123.701C64.39 123.32 64.9496 122.82 65.4041 122.242C65.4414 122.198 65.4753 122.151 65.5093 122.104C65.5432 122.056 65.5771 122.009 65.611 121.965C65.6449 121.918 65.6755 121.871 65.7094 121.82C65.7399 121.773 65.7704 121.722 65.8009 121.675C66.3809 120.729 66.6862 119.638 66.6862 118.523C66.6862 115.183 63.9559 112.464 60.6016 112.464L60.5982 112.461ZM62.6807 119.78C62.4772 120.111 62.1957 120.391 61.8633 120.594C61.4834 120.824 61.0459 120.945 60.5982 120.945C59.2551 120.945 58.163 119.854 58.163 118.517C58.163 117.179 59.2551 116.088 60.5982 116.088C61.9413 116.088 63.0334 117.176 63.0334 118.517C63.0334 118.962 62.9113 119.398 62.6807 119.776V119.78Z" fill="white"/>
</g>
<defs>
<linearGradient id="paint0_linear_145_9338" x1="52.6014" y1="95.9035" x2="68.145" y2="80.2955" gradientUnits="userSpaceOnUse">
<stop stop-color="#00C0FF"/>
<stop offset="1" stop-color="#4218B8"/>
</linearGradient>
<linearGradient id="paint1_linear_145_9338" x1="53.707" y1="71.2335" x2="114.183" y2="71.2335" gradientUnits="userSpaceOnUse">
<stop stop-color="#00C0FF"/>
<stop offset="1" stop-color="#4218B8"/>
</linearGradient>
<clipPath id="clip0_145_9338">
<rect width="110" height="103" fill="white" transform="translate(25 29)"/>
</clipPath>
</defs>
</svg>
