<svg width="48" height="48" viewBox="0 0 48 48" fill="none" xmlns="http://www.w3.org/2000/svg">
<rect width="48" height="48" rx="12" fill="#4D49BE"/>
<rect x="0.5" y="0.5" width="47" height="47" rx="11.5" stroke="#C2C5FF" stroke-opacity="0.3"/>
<g clip-path="url(#clip0_112_1565)">
<path d="M19.6667 22.0001C17.64 22.0001 16 20.3601 16 18.3334C16 16.3067 17.64 14.6667 19.6667 14.6667C21.6933 14.6667 23.3333 16.3067 23.3333 18.3334C23.3333 20.3601 21.6933 22.0001 19.6667 22.0001ZM19.6667 16.6667C18.7467 16.6667 18 17.4134 18 18.3334C18 19.2534 18.7467 20.0001 19.6667 20.0001C20.5867 20.0001 21.3333 19.2534 21.3333 18.3334C21.3333 17.4134 20.5867 16.6667 19.6667 16.6667Z" fill="white" fill-opacity="0.7"/>
<path d="M36.9997 19.9999C36.453 19.9999 35.9997 20.4533 35.9997 20.9999V24.0133L35.4797 23.5733C34.053 22.3599 31.8397 22.3599 30.413 23.5733L24.8663 28.3333C24.213 28.9066 23.0797 28.9066 22.413 28.3333L21.973 27.9466C20.6663 26.8399 18.6797 26.7333 17.2397 27.6933L11.733 31.3866C11.453 30.3599 11.333 29.1199 11.333 27.6666V19.6666C11.333 13.5199 13.5197 11.3333 19.6663 11.3333H24.9997C25.5463 11.3333 25.9997 10.8799 25.9997 10.3333C25.9997 9.78659 25.5463 9.33325 24.9997 9.33325H19.6663C12.4263 9.33325 9.33301 12.4266 9.33301 19.6666V27.6666C9.33301 34.9066 12.4263 37.9999 19.6663 37.9999H27.6663C34.9063 37.9999 37.9997 34.9066 37.9997 27.6666V20.9999C37.9997 20.4533 37.5463 19.9999 36.9997 19.9999ZM35.9997 27.6666C35.9997 33.8133 33.813 35.9999 27.6663 35.9999H19.6663C15.9997 35.9999 13.733 35.2133 12.533 33.2799L18.3597 29.3599C19.0397 28.8933 20.053 28.9466 20.6663 29.4666L21.1063 29.8533C22.533 31.0666 24.7597 31.0666 26.173 29.8533L31.7197 25.0933C32.373 24.5199 33.5063 24.5199 34.173 25.0933L35.9997 26.6666V27.6666Z" fill="white" fill-opacity="0.7"/>
<path d="M36.9993 14.3334C36.9993 14.8801 36.546 15.3334 35.9993 15.3334H33.3327V18.0001C33.3327 18.5467 32.8793 19.0001 32.3327 19.0001C31.786 19.0001 31.3327 18.5467 31.3327 18.0001V15.3334H28.666C28.1193 15.3334 27.666 14.8801 27.666 14.3334C27.666 13.7867 28.1193 13.3334 28.666 13.3334H31.3327V10.6667C31.3327 10.1201 31.786 9.66675 32.3327 9.66675C32.8793 9.66675 33.3327 10.1201 33.3327 10.6667V13.3334H35.9993C36.546 13.3334 36.9993 13.7867 36.9993 14.3334Z" fill="white" fill-opacity="0.7"/>
</g>
<defs>
<clipPath id="clip0_112_1565">
<rect width="28.6667" height="28.6667" fill="white" transform="translate(9.33301 9.33325)"/>
</clipPath>
</defs>
</svg>
