<?xml version="1.0" encoding="utf-8"?>
<!-- Generator: Adobe Illustrator 28.0.0, SVG Export Plug-In . SVG Version: 6.00 Build 0)  -->
<svg version="1.1" id="Vrstva_1" xmlns="http://www.w3.org/2000/svg" xmlns:xlink="http://www.w3.org/1999/xlink" x="0px" y="0px"
	 viewBox="0 0 32 32" style="enable-background:new 0 0 32 32;" xml:space="preserve">
<style type="text/css">
	.st0{fill:none;stroke:#DABDFF;stroke-opacity:0.4;}
	.st1{fill:#B28FE0;stroke:#DABDFF;}
</style>
<path class="st0" d="M16,2.7c0.2,0,0.4,0.1,0.5,0.3l2.4,7.4c0.2,0.6,0.8,1,1.4,1h7.8c0.5,0,0.7,0.6,0.3,0.9l-6.3,4.6
	c-0.5,0.4-0.8,1.1-0.5,1.7l2.4,7.4c0.2,0.5-0.4,0.9-0.8,0.6l-6.3-4.6c-0.3-0.2-0.6-0.3-0.9-0.3"/>
<path class="st1" d="M16,21.8c-0.3,0-0.6,0.1-0.9,0.3l-6.3,4.6C8.4,27,7.9,26.6,8,26.2l2.4-7.4c0.2-0.6,0-1.3-0.5-1.7l-6.3-4.6
	c-0.4-0.3-0.2-0.9,0.3-0.9h7.8c0.7,0,1.2-0.4,1.4-1l2.4-7.4c0.1-0.2,0.3-0.3,0.5-0.3"/>
</svg>
