<svg width="48" height="48" viewBox="0 0 48 48" fill="none" xmlns="http://www.w3.org/2000/svg">
<rect width="48" height="48" rx="12" fill="#074DB6"/>
<rect x="0.5" y="0.5" width="47" height="47" rx="11.5" stroke="#A2CFFF" stroke-opacity="0.3"/>
<g clip-path="url(#clip0_112_1566)">
<path d="M16.72 26.7334H16.3066C16.4666 26.7334 16.6133 26.7334 16.72 26.7467C17.68 26.8667 18.5733 27.3201 19.2933 28.0401C18.5733 27.3067 17.68 26.8534 16.72 26.7334Z" fill="white" fill-opacity="0.7"/>
<path d="M21.7868 28.0267C22.0535 28.4934 22.2535 28.9734 22.3868 29.4934C22.2535 28.9734 22.0535 28.48 21.7868 28.0267ZM20.0535 26.0534C20.2802 26.24 20.4935 26.4267 20.7068 26.64C20.9202 26.84 21.1068 27.0667 21.2802 27.28C21.1202 27.0534 20.9335 26.84 20.7202 26.6267C20.5068 26.4134 20.2935 26.2267 20.0535 26.0534ZM20.0535 26.0534C19.4802 25.6 18.8535 25.2534 18.1602 25.04C18.8402 25.2667 19.4802 25.6134 20.0535 26.0534Z" fill="white" fill-opacity="0.7"/>
<path d="M37.0392 10.1599C36.2259 9.3599 35.0392 9.10656 33.9325 9.53323C28.6925 11.6399 21.5325 16.9466 17.9992 21.3599L15.9459 23.9466C15.7325 24.1866 15.5459 24.4532 15.3859 24.7599C12.3859 25.1066 10.0392 27.4132 9.7192 30.4532L9.3592 33.7332C9.22586 34.9066 9.62586 36.0532 10.4525 36.8799C11.1725 37.5999 12.1325 37.9999 13.1325 37.9999C13.2792 37.9999 13.4259 37.9866 13.5725 37.9732L16.8659 37.6132C18.3592 37.4266 19.6792 36.7999 20.7059 35.7866C21.7859 34.6932 22.4392 33.2932 22.5859 31.7732C22.7859 31.6532 23.0125 31.5066 23.2525 31.3332L25.8792 29.2266C30.2925 25.6932 35.5859 18.5466 37.6925 13.2932C38.1325 12.1999 37.8792 10.9999 37.0392 10.1599ZM19.2659 34.3732C18.5725 35.0666 17.6525 35.4932 16.6259 35.6266L13.3459 35.9866C12.7992 36.0532 12.2525 35.8532 11.8659 35.4666C11.4792 35.0666 11.2792 34.5199 11.3459 33.9599L11.7059 30.6799C11.9725 28.1866 14.0525 26.8132 16.0392 26.7332H16.7192C17.6792 26.8532 18.5725 27.3066 19.2925 28.0266C20.0125 28.7599 20.4392 29.5732 20.5592 30.5199C20.5859 30.7332 20.5992 30.9466 20.5992 31.1466C20.5992 32.3866 20.1192 33.5199 19.2659 34.3732ZM24.6392 27.6799L22.3859 29.4932C22.2525 28.9732 22.0525 28.4932 21.7859 28.0266C21.7592 27.9732 21.7325 27.9199 21.6925 27.8666C21.5725 27.6666 21.4259 27.4666 21.2792 27.2799C21.1059 27.0666 20.9192 26.8399 20.7059 26.6399C20.4925 26.4266 20.2792 26.2399 20.0525 26.0532C19.4792 25.6132 18.8392 25.2666 18.1592 25.0399C18.0259 24.9999 17.8925 24.9599 17.7459 24.9199L19.5459 22.6266C19.7992 22.3066 20.0792 21.9866 20.3725 21.6532C23.2392 21.6532 25.5859 23.9466 25.6659 26.7999C25.3192 27.1199 24.9725 27.4132 24.6392 27.6799ZM35.8392 12.5599C34.2792 16.4666 30.8525 21.4932 27.4125 25.0932C26.7459 22.5332 24.7059 20.5066 22.1192 19.8799C25.7192 16.4266 30.7459 12.9866 34.6525 11.4132C35.1859 11.2132 35.5325 11.5066 35.6259 11.5999C35.7592 11.7199 36.0392 12.0666 35.8392 12.5599Z" fill="white" fill-opacity="0.7"/>
</g>
<defs>
<clipPath id="clip0_112_1566">
<rect width="28.5733" height="28.6667" fill="white" transform="translate(9.33301 9.33325)"/>
</clipPath>
</defs>
</svg>
