<svg width="48" height="48" viewBox="0 0 48 48" fill="none" xmlns="http://www.w3.org/2000/svg">
<rect width="48" height="48" rx="12" fill="#6D42A1"/>
<rect x="0.5" y="0.5" width="47" height="47" rx="11.5" stroke="#DABDFF" stroke-opacity="0.3"/>
<g clip-path="url(#clip0_112_1564)">
<path d="M19.666 31.3332C19.5193 31.3332 19.3593 31.2932 19.226 31.2265C18.1993 30.7065 17.3193 29.9332 16.6793 28.9732C16.146 28.1732 16.146 27.1465 16.6793 26.3465C17.3193 25.3865 18.1993 24.6132 19.226 24.1065C19.7193 23.8532 20.3193 24.0665 20.5726 24.5598C20.826 25.0532 20.626 25.6532 20.1193 25.9065C19.3993 26.2665 18.786 26.8132 18.346 27.4798C18.266 27.5998 18.266 27.7598 18.346 27.8932C18.786 28.5598 19.3993 29.1065 20.1193 29.4665C20.6126 29.7198 20.8126 30.3198 20.5726 30.8132C20.386 31.1332 20.026 31.3332 19.666 31.3332Z" fill="white" fill-opacity="0.7"/>
<path d="M27.9463 31.3332C27.573 31.3332 27.2263 31.1332 27.053 30.7866C26.7996 30.2932 26.9996 29.6932 27.5063 29.4399C28.2263 29.0799 28.8396 28.5332 29.2796 27.8666C29.3596 27.7466 29.3596 27.5866 29.2796 27.4532C28.8396 26.7866 28.2263 26.2399 27.5063 25.8799C27.013 25.6266 26.813 25.0266 27.053 24.5332C27.3063 24.0399 27.9063 23.8399 28.3996 24.0799C29.4263 24.5999 30.3063 25.3732 30.9463 26.3332C31.4796 27.1332 31.4796 28.1599 30.9463 28.9599C30.3063 29.9199 29.4263 30.6932 28.3996 31.1999C28.2396 31.2932 28.093 31.3332 27.9463 31.3332Z" fill="white" fill-opacity="0.7"/>
<path d="M27.6663 9.33325H19.6663C12.4263 9.33325 9.33301 12.4266 9.33301 19.6666V27.6666C9.33301 34.9066 12.4263 37.9999 19.6663 37.9999H27.6663C34.9063 37.9999 37.9997 34.9066 37.9997 27.6666V19.6666C37.9997 12.4266 34.9063 9.33325 27.6663 9.33325ZM19.6663 11.3333H27.6663C32.9597 11.3333 35.3197 12.9599 35.8663 17.3333H11.4663C12.013 12.9599 14.373 11.3333 19.6663 11.3333ZM35.9997 27.6666C35.9997 33.8133 33.813 35.9999 27.6663 35.9999H19.6663C13.5197 35.9999 11.333 33.8133 11.333 27.6666V19.6666C11.333 19.5599 11.333 19.4533 11.3463 19.3466H35.9863C35.9997 19.4399 35.9997 19.5599 35.9997 19.6666V27.6666Z" fill="white" fill-opacity="0.7"/>
</g>
<defs>
<clipPath id="clip0_112_1564">
<rect width="28.6667" height="28.6667" fill="white" transform="translate(9.33301 9.33325)"/>
</clipPath>
</defs>
</svg>
