<svg width="112" height="33" viewBox="0 0 112 33" fill="none" xmlns="http://www.w3.org/2000/svg">
<g clip-path="url(#clip0_81_3170)">
<path d="M27.7443 23.0615C27.5902 22.9114 27.5137 22.7252 27.5137 22.504V8.43654C27.5137 8.20746 27.589 8.019 27.7387 7.8723C27.8883 7.7256 28.0739 7.65225 28.2943 7.65225H32.8389C33.6275 7.65225 34.3654 7.7888 35.0516 8.06189C35.7378 8.33498 36.334 8.72091 36.839 9.2197C37.3362 9.71058 37.7243 10.2996 38.0044 10.988C38.2845 11.6764 38.424 12.4009 38.424 13.1603V17.8491C38.424 18.6007 38.2857 19.3093 38.0101 19.974C37.7333 20.6387 37.343 21.2165 36.839 21.7073C36.334 22.2061 35.7389 22.5943 35.0516 22.8708C34.3654 23.1484 33.6275 23.2861 32.8389 23.2861H28.2943C28.0817 23.2861 27.8984 23.2105 27.7443 23.0604V23.0615ZM32.8389 21.7085C33.4227 21.7085 33.9627 21.6092 34.4599 21.4117C34.9571 21.2142 35.3868 20.9366 35.7501 20.5811C36.1056 20.2336 36.3756 19.8273 36.5612 19.3646C36.7468 18.902 36.839 18.4009 36.839 17.8626V13.1502C36.839 12.6198 36.7445 12.1097 36.5556 11.6188C36.3666 11.1279 36.0977 10.7093 35.7513 10.3606C35.3879 10.004 34.9605 9.72976 34.4678 9.53567C33.9751 9.34157 33.4317 9.24452 32.8412 9.24452H29.102V21.7096H32.8412L32.8389 21.7085Z" fill="white"/>
<path d="M43.5074 22.978C42.801 22.6778 42.1834 22.2614 41.6559 21.731C41.1193 21.2006 40.7008 20.5811 40.4016 19.8736C40.1013 19.1649 39.9517 18.419 39.9517 17.6358C39.9517 16.8527 40.1013 16.1067 40.4016 15.3981C40.7008 14.6894 41.1193 14.0665 41.6559 13.5282C42.1846 12.9978 42.8021 12.5825 43.5074 12.2812C44.2139 11.9799 44.9574 11.8298 45.7381 11.8298C46.5188 11.8298 47.2511 11.9799 47.9564 12.2812C48.6628 12.5825 49.2838 12.9978 49.8204 13.5282C50.3491 14.0586 50.7653 14.6758 51.069 15.38C51.3727 16.0842 51.5291 16.8244 51.5369 17.5997C51.5369 17.813 51.4661 17.9935 51.3243 18.1402C51.1826 18.2869 50.997 18.3603 50.7675 18.3603H41.7031C41.7661 18.8512 41.9146 19.3116 42.1463 19.7438C42.3792 20.1749 42.6773 20.5529 43.0395 20.8779C43.4107 21.2029 43.8269 21.4557 44.2881 21.6374C44.7493 21.819 45.233 21.9104 45.7381 21.9104C46.2117 21.9104 46.5975 21.8676 46.8979 21.7795C47.1656 21.7085 47.4817 21.5697 47.845 21.3643C48.0025 21.2695 48.1645 21.2221 48.3299 21.2221C48.5425 21.2221 48.7247 21.3067 48.8743 21.4771C49.0239 21.6475 49.0993 21.8394 49.0993 22.0526C49.0993 22.337 48.9733 22.5514 48.7202 22.6936C48.2624 22.9543 47.8327 23.1371 47.43 23.2398C46.9249 23.3662 46.3613 23.4294 45.7381 23.4294C44.9574 23.4294 44.2139 23.2793 43.5074 22.978ZM49.9272 17.0309C49.8642 16.5085 49.7157 16.0244 49.4829 15.5764C49.25 15.1295 48.9441 14.739 48.5661 14.4073C48.187 14.0744 47.7573 13.8159 47.2758 13.6297C46.7944 13.4435 46.2893 13.351 45.7617 13.351C45.2342 13.351 44.7178 13.4458 44.2409 13.6354C43.7639 13.825 43.3398 14.0902 42.9686 14.431C42.6053 14.7639 42.3094 15.1554 42.0811 15.6057C41.8516 16.0571 41.7099 16.5322 41.6547 17.0298H49.9261L49.9272 17.0309Z" fill="white"/>
<path d="M52.915 23.0615C52.7766 22.9114 52.708 22.7173 52.708 22.4803C52.708 22.2433 52.7766 22.0651 52.915 21.9229C53.0533 21.7807 53.2288 21.7096 53.4414 21.7096H58.4472C58.6677 21.7096 58.8893 21.6678 59.1098 21.5855C59.3303 21.5019 59.5237 21.3823 59.6891 21.2232C60.0761 20.8598 60.2684 20.4243 60.2684 19.9176C60.2684 19.4109 60.0828 19.0001 59.7127 18.683C59.5474 18.5408 59.3516 18.4314 59.1266 18.3569C58.9017 18.2813 58.6711 18.2407 58.4348 18.2328H56.1041C55.662 18.2328 55.2458 18.1459 54.8554 17.9721C54.4651 17.7983 54.1231 17.5602 53.8318 17.26C53.5393 16.9587 53.3154 16.6134 53.1568 16.2207C52.9994 15.8291 52.9206 15.415 52.9206 14.9805C52.9206 14.5461 53.0039 14.15 53.1692 13.7697C53.3346 13.3894 53.5641 13.0531 53.8554 12.7608C54.1467 12.4686 54.4865 12.2406 54.8734 12.0781C55.2604 11.9156 55.6699 11.8344 56.1041 11.8344H60.4237C60.652 11.8344 60.8421 11.9043 60.9917 12.042C61.1413 12.1808 61.2167 12.3681 61.2167 12.6062C61.2167 12.8443 61.1413 13.0497 60.9917 13.1998C60.8421 13.3499 60.652 13.4255 60.4237 13.4255H56.0928C55.6586 13.4255 55.2806 13.588 54.9567 13.9119C54.8149 14.0619 54.7024 14.2346 54.6192 14.4287C54.536 14.6228 54.4955 14.8225 54.4955 15.0279C54.4955 15.2333 54.5371 15.4477 54.6192 15.6452C54.7024 15.8427 54.8183 16.0131 54.9679 16.1553C55.1097 16.3053 55.2795 16.4238 55.4764 16.5119C55.6732 16.5987 55.8791 16.6428 56.0917 16.6428H58.5653C59.0232 16.6428 59.4529 16.7274 59.8556 16.8978C60.2583 17.0682 60.6093 17.3074 60.9085 17.6155C61.2088 17.9247 61.4394 18.2802 61.6003 18.6842C61.7623 19.0881 61.8433 19.5113 61.8433 19.9548C61.8433 20.3983 61.7623 20.8215 61.6003 21.2255C61.4383 21.6295 61.2111 21.9849 60.9197 22.2941C60.6194 22.6112 60.2707 22.8561 59.8725 23.0299C59.4742 23.2037 59.0457 23.2906 58.589 23.2906H53.4414C53.2288 23.2906 53.0522 23.215 52.915 23.0649V23.0615Z" fill="white"/>
<path d="M63.7961 9.93738C63.615 9.75118 63.5239 9.52774 63.5239 9.26707C63.5239 9.00639 63.615 8.7728 63.7961 8.58998C63.9773 8.40717 64.2022 8.31689 64.4711 8.31689C64.7399 8.31689 64.966 8.4083 65.1516 8.58998C65.3373 8.77167 65.4295 8.99736 65.4295 9.26707C65.4295 9.53677 65.3373 9.75231 65.1516 9.93738C64.966 10.1224 64.7388 10.2161 64.4711 10.2161C64.2034 10.2161 63.9784 10.1236 63.7961 9.93738ZM63.903 23.1145C63.7455 22.9599 63.6668 22.7726 63.6668 22.5503V12.6378C63.6668 12.4087 63.7455 12.2158 63.903 12.0623C64.0605 11.9077 64.2506 11.8309 64.4711 11.8309C64.6916 11.8309 64.8873 11.9077 65.0335 12.0623C65.1798 12.2169 65.2529 12.4087 65.2529 12.6378V22.5503C65.2529 22.7715 65.1764 22.9599 65.0223 23.1145C64.8682 23.2691 64.6848 23.3458 64.4722 23.3458C64.2596 23.3458 64.0616 23.2691 63.9041 23.1145H63.903Z" fill="white"/>
<path d="M69.2868 28.0538C69.1136 27.8992 69.027 27.7153 69.027 27.502C69.027 27.0427 69.4173 26.6873 70.1991 26.4334C70.4826 26.3386 70.7852 26.2686 71.1046 26.2257C71.4241 26.1817 71.6986 26.1603 71.9269 26.1603C72.2509 26.1603 72.5704 26.1727 72.8854 26.1964C73.2093 26.2201 73.5277 26.2325 73.8438 26.2325C74.7988 26.2325 75.5401 26.0068 76.0688 25.5554C76.5975 25.104 76.8619 24.463 76.8619 23.6325C76.8619 23.2759 76.8146 22.9633 76.7201 22.6947C76.6493 22.5209 76.5469 22.3381 76.4119 22.1486C75.9068 22.5604 75.3432 22.8764 74.7201 23.0987C74.0969 23.3199 73.4456 23.4316 72.7672 23.4316C71.9866 23.4316 71.2464 23.2827 70.549 22.9859C69.8504 22.6891 69.2328 22.2716 68.6974 21.7333C68.1608 21.2029 67.7423 20.5856 67.4431 19.8815C67.1428 19.1773 66.9932 18.4336 66.9932 17.6493C66.9932 16.8651 67.1428 16.1056 67.4431 15.3935C67.7435 14.6815 68.1608 14.0597 68.6974 13.5293C69.234 12.991 69.8515 12.5735 70.549 12.2767C71.2475 11.9799 71.9866 11.831 72.7672 11.831C73.5479 11.831 74.3038 11.981 75.0092 12.2824C75.7156 12.5837 76.332 12.9989 76.8607 13.5293C77.3894 14.0676 77.8011 14.6905 78.097 15.3992C78.3928 16.1079 78.5402 16.8572 78.5402 17.6493C78.5402 18.8523 78.1926 19.9526 77.4985 20.9501C77.8225 21.2988 78.0565 21.6915 78.2027 22.1316C78.349 22.5706 78.4221 23.0716 78.4221 23.6336C78.4221 24.2825 78.3141 24.8659 78.097 25.385C77.8799 25.903 77.5739 26.3487 77.1802 26.72C76.809 27.0676 76.3793 27.3373 75.89 27.5268C75.4006 27.7164 74.8922 27.8157 74.3635 27.8236C74.008 27.8236 73.63 27.7875 73.2273 27.7164C72.7852 27.6532 72.387 27.6216 72.0327 27.6216C71.7638 27.6216 71.4927 27.6532 71.216 27.7164C70.8684 27.7954 70.5771 27.9263 70.3397 28.108C70.1901 28.2265 70.0326 28.2863 69.8661 28.2863C69.6535 28.2863 69.4601 28.2096 69.2868 28.055V28.0538ZM74.4107 21.5245C74.9237 21.3067 75.3736 21.0009 75.7595 20.6048C76.1464 20.2166 76.4456 19.7675 76.6594 19.2574C76.8731 18.7474 76.9788 18.2113 76.9788 17.6493C76.9788 17.0874 76.872 16.5378 76.6594 16.0232C76.4468 15.5086 76.1464 15.0573 75.7595 14.6702C75.3725 14.282 74.9214 13.9796 74.4051 13.7618C73.8888 13.544 73.3421 13.4356 72.7661 13.4356C72.1902 13.4356 71.648 13.544 71.1395 13.7618C70.6311 13.9796 70.1834 14.282 69.7964 14.6702C69.4094 15.0584 69.108 15.5086 68.8909 16.0232C68.6738 16.5378 68.5658 17.0795 68.5658 17.6493C68.5658 18.2192 68.6738 18.7474 68.8909 19.2574C69.108 19.7675 69.4094 20.2166 69.7964 20.6048C70.1834 21.0009 70.6311 21.3067 71.1395 21.5245C71.648 21.7423 72.1902 21.8506 72.7661 21.8506C73.3421 21.8506 73.8978 21.7423 74.4107 21.5245Z" fill="white"/>
<path d="M80.2039 23.0615C80.0419 22.9114 79.9609 22.7252 79.9609 22.504V17.3988C79.9609 16.6473 80.0948 15.9307 80.3636 15.2502C80.6314 14.5698 81.0105 13.9717 81.4998 13.4571C81.9891 12.9425 82.5628 12.543 83.222 12.2587C83.8812 11.9743 84.5842 11.831 85.3345 11.831C86.0849 11.831 86.7857 11.9731 87.4404 12.2587C88.095 12.5442 88.6676 12.9391 89.1558 13.4458C89.6373 13.9604 90.0096 14.5562 90.274 15.2322C90.5383 15.9093 90.6699 16.627 90.6699 17.3864V22.5029C90.6699 22.7331 90.5968 22.9204 90.4506 23.0671C90.3043 23.2138 90.1176 23.2872 89.8881 23.2872C89.6586 23.2872 89.4798 23.2138 89.3257 23.0671C89.1716 22.9204 89.0951 22.7331 89.0951 22.5029V17.4462C89.0951 16.9 89.0017 16.3821 88.8172 15.8912C88.6316 15.4003 88.3729 14.9737 88.0422 14.6093C87.6946 14.2369 87.2907 13.948 86.8295 13.7426C86.3683 13.5372 85.8689 13.4334 85.3323 13.4334C84.7957 13.4334 84.2963 13.5338 83.8351 13.7358C83.3739 13.9378 82.9689 14.2211 82.6224 14.5844C82.2827 14.941 82.0184 15.3642 81.8294 15.8551C81.6404 16.346 81.5448 16.8639 81.5448 17.4101V22.5029C81.5448 22.7331 81.4739 22.9204 81.3322 23.0671C81.1904 23.2138 81.0048 23.2872 80.7765 23.2872C80.5481 23.2872 80.3636 23.2116 80.2028 23.0615H80.2039Z" fill="white"/>
<path d="M95.9365 22.9848C95.2424 22.688 94.6305 22.2704 94.1018 21.7321C93.5731 21.2018 93.1625 20.5845 92.8712 19.8803C92.5787 19.1762 92.4336 18.4325 92.4336 17.6482C92.4336 16.8639 92.5798 16.1067 92.8712 15.3981C93.1625 14.6894 93.5731 14.0665 94.1018 13.5282C94.6305 12.9899 95.2413 12.5724 95.9365 12.2756C96.6306 11.9788 97.3685 11.8298 98.1492 11.8298C98.9299 11.8298 99.679 11.9788 100.374 12.2756C101.068 12.5724 101.68 12.9899 102.209 13.5282C102.73 14.0586 103.136 14.6792 103.427 15.3924C103.719 16.1045 103.865 16.8572 103.865 17.6482V22.5277C103.865 22.7568 103.786 22.9509 103.629 23.1089C103.471 23.2669 103.278 23.3459 103.049 23.3459C102.821 23.3459 102.635 23.2691 102.494 23.1145C102.352 22.9599 102.281 22.7647 102.281 22.5266L102.269 21.6723C101.732 22.2343 101.114 22.6677 100.417 22.9723C99.7184 23.277 98.9636 23.4294 98.1503 23.4294C97.337 23.4294 96.6317 23.2804 95.9376 22.9836L95.9365 22.9848ZM99.7881 21.5245C100.297 21.3067 100.736 21.0009 101.108 20.6048C101.479 20.2166 101.767 19.7675 101.972 19.2574C102.176 18.7473 102.28 18.2113 102.28 17.6493C102.28 17.0874 102.177 16.5355 101.972 16.0176C101.767 15.4996 101.479 15.0505 101.108 14.6702C100.729 14.282 100.288 13.9796 99.7825 13.7618C99.2774 13.544 98.733 13.4356 98.1492 13.4356C97.5654 13.4356 97.0344 13.544 96.5338 13.7618C96.0332 13.9796 95.5934 14.282 95.2143 14.6702C94.8352 15.0584 94.5416 15.5086 94.3324 16.0232C94.1232 16.5378 94.0186 17.0795 94.0186 17.6493C94.0186 18.2192 94.1232 18.7473 94.3324 19.2574C94.5416 19.7675 94.8352 20.2166 95.2143 20.6048C95.5934 21.0009 96.0332 21.3067 96.5338 21.5245C97.0344 21.7423 97.5732 21.8506 98.1492 21.8506C98.7251 21.8506 99.2797 21.7423 99.7881 21.5245Z" fill="white"/>
<path d="M110.8 23.0852C110.658 23.2274 110.473 23.2985 110.244 23.2985H110.221C109.668 23.2985 109.16 23.2037 108.694 23.013C108.228 22.8234 107.819 22.5503 107.463 22.1937C107.108 21.8371 106.836 21.4128 106.647 20.9174C106.458 20.4231 106.363 19.8747 106.363 19.2732V8.52905C106.363 8.29997 106.436 8.10814 106.583 7.95354C106.729 7.79893 106.912 7.7222 107.133 7.7222C107.353 7.7222 107.543 7.79893 107.701 7.95354C107.858 8.10814 107.937 8.29997 107.937 8.52905V19.2484C107.937 20.0236 108.134 20.6296 108.529 21.0652C108.924 21.5008 109.471 21.7265 110.173 21.7423H110.233C110.461 21.7423 110.649 21.8179 110.795 21.968C110.942 22.1181 111.015 22.3043 111.015 22.5255C111.015 22.7466 110.944 22.9407 110.802 23.0829L110.8 23.0852Z" fill="white"/>
<path d="M13.1792 29.0514C13.0228 29.0514 12.8654 29.0412 12.7079 29.0221C11.574 28.8799 10.5796 28.2389 9.98001 27.2628L9.89902 27.1307C8.97323 25.6242 9.21733 23.6968 10.493 22.4431C12.1016 20.8621 12.9869 18.7519 12.9869 16.5006C12.9869 14.2493 12.1016 12.1379 10.493 10.5569C9.21733 9.30319 8.97323 7.37464 9.89902 5.86813L9.98001 5.73723C10.5796 4.76111 11.574 4.12013 12.7079 3.97795C13.844 3.83576 14.9667 4.21267 15.789 5.01275C18.915 8.05285 20.6361 12.1334 20.6361 16.5006C20.6361 20.8677 18.915 24.9472 15.789 27.9873C15.0814 28.6756 14.15 29.0514 13.1792 29.0514ZM13.1758 6.20555C13.1128 6.20555 13.0498 6.20893 12.9869 6.21683C12.5324 6.27325 12.1353 6.53055 11.8946 6.921L11.8136 7.0519C11.4435 7.6545 11.547 8.43314 12.0667 8.94434C14.1106 10.953 15.2355 13.6365 15.2355 16.4994C15.2355 19.3624 14.1095 22.0447 12.0667 24.0545C11.547 24.5657 11.4424 25.3433 11.8136 25.9459L11.8946 26.0779C12.1342 26.4683 12.5324 26.7245 12.9857 26.7821C13.4413 26.8396 13.8924 26.6873 14.222 26.3668C16.9071 23.7555 18.3852 20.2505 18.3852 16.5006C18.3852 12.7507 16.9071 9.24451 14.222 6.63324C13.9374 6.35676 13.5639 6.20555 13.1747 6.20555H13.1758ZM7.39163 20.896C8.92374 19.9458 9.83827 18.3016 9.83827 16.5006C9.83827 14.6995 8.92374 13.0542 7.39163 12.1041C6.86293 11.7757 6.17 11.9404 5.84265 12.4697C5.51531 13.0001 5.67954 13.6952 6.20712 14.0236C7.07104 14.5596 7.58736 15.4861 7.58736 16.5017C7.58736 17.5173 7.07104 18.4415 6.20712 18.9787C5.67842 19.3071 5.51531 20.0022 5.84265 20.5315C6.05526 20.8768 6.4231 21.0664 6.79994 21.0664C7.00242 21.0664 7.20602 21.0122 7.39051 20.8971L7.39163 20.896Z" fill="#9063CD"/>
<path d="M4.51549 32.5C4.50199 32.5 4.48849 32.5 4.47499 32.5C3.25898 32.4966 2.04522 32.3555 0.868585 32.0802C0.263393 31.938 -0.112322 31.332 0.0294149 30.7249C0.171152 30.1178 0.775219 29.7409 1.38041 29.8831C2.40294 30.1223 3.45697 30.2442 4.51549 30.2442C4.52674 30.2442 4.53799 30.2442 4.54924 30.2442C5.78774 30.2374 7.01388 30.0647 8.19502 29.7319C8.79233 29.5637 9.4144 29.9124 9.58201 30.5127C9.75074 31.1131 9.40203 31.736 8.80358 31.9042C7.41547 32.2957 5.97448 32.4966 4.51999 32.5011H4.51662L4.51549 32.5Z" fill="#DABDFF"/>
<path d="M8.50106 3.31327C8.39982 3.31327 8.29746 3.29973 8.19509 3.27039C7.01508 2.93636 5.78782 2.76371 4.54594 2.75694C4.53581 2.75694 4.52569 2.75694 4.51556 2.75694C3.45816 2.75694 2.40301 2.87881 1.38049 3.11805C0.775293 3.25911 0.1701 2.8822 0.0294884 2.27621C-0.111123 1.66909 0.264591 1.06198 0.869784 0.920919C2.04755 0.644444 3.26243 0.503385 4.47957 0.5C4.49307 0.5 4.50544 0.5 4.52006 0.5C5.97793 0.504514 7.41891 0.70651 8.80591 1.09922C9.40435 1.26849 9.75194 1.8914 9.58321 2.49175C9.44372 2.9894 8.99151 3.3144 8.50106 3.3144V3.31327Z" fill="#DABDFF"/>
<path d="M3.15443 8.31691C3.29279 8.28983 3.41991 8.26952 3.54815 8.25259C3.87549 8.20745 4.20621 8.1815 4.5358 8.17472H4.5493C4.81815 8.17472 5.09037 8.19165 5.35697 8.22099C5.3986 8.22551 5.44022 8.22776 5.48071 8.22776C5.51783 8.22776 5.55496 8.22551 5.59208 8.22212C6.10953 8.17021 6.53924 7.7617 6.59773 7.2223C6.66635 6.60277 6.22089 6.0453 5.60333 5.9776C5.26248 5.94036 4.91602 5.92004 4.57292 5.91891C4.5538 5.91891 4.53468 5.91891 4.51555 5.91891C4.48856 5.91891 4.46268 5.91891 4.43681 5.9223C4.03635 5.93133 3.63701 5.96292 3.24442 6.01709C3.08019 6.03853 2.91371 6.06674 2.73597 6.1006C2.12516 6.2157 1.72469 6.80589 1.83943 7.41865C1.9553 8.03141 2.54362 8.43314 3.15443 8.31804V8.31691Z" fill="#DABDFF"/>
<path d="M5.58406 24.7768C5.50869 24.77 5.4322 24.77 5.35458 24.779C5.09698 24.8072 4.83376 24.823 4.57166 24.8242C4.22969 24.8196 3.88772 24.7959 3.55138 24.7497C3.41752 24.7305 3.28365 24.7079 3.15317 24.6831C2.54235 24.568 1.95403 24.9697 1.83929 25.5825C1.72343 26.1952 2.12389 26.7854 2.73471 26.9005C2.89894 26.9321 3.06767 26.9603 3.24316 26.9852C3.64475 27.0405 4.05196 27.0721 4.45467 27.0811C4.47492 27.0811 4.49516 27.0811 4.51541 27.0811C4.87875 27.0811 5.24434 27.0608 5.60206 27.0213C6.21963 26.9524 6.66508 26.395 6.59647 25.7754C6.53685 25.2338 6.10601 24.8253 5.58406 24.7756V24.7768Z" fill="#DABDFF"/>
</g>
<defs>
<clipPath id="clip0_81_3170">
<rect width="111.012" height="32" fill="white" transform="translate(0 0.5)"/>
</clipPath>
</defs>
</svg>
