<svg width="50" height="50" viewBox="0 0 50 50" fill="none" xmlns="http://www.w3.org/2000/svg">
<path d="M18.6667 45.5129C22.3486 45.5129 25.3333 42.4516 25.3333 38.6753V31.8376H18.6667C14.9848 31.8376 12 34.8989 12 38.6753C12 42.4516 14.9848 45.5129 18.6667 45.5129Z" fill="#0ACF83"/>
<path d="M12 25C12 21.2237 14.9848 18.1624 18.6667 18.1624H25.3333V31.8376H18.6667C14.9848 31.8376 12 28.7763 12 25Z" fill="#A259FF"/>
<path d="M12 11.3248C12 7.54848 14.9848 4.48718 18.6667 4.48718H25.3333V18.1624H18.6667C14.9848 18.1624 12 15.1011 12 11.3248Z" fill="#F24E1E"/>
<path d="M25.3335 4.48718H32.0002C35.6821 4.48718 38.6668 7.54848 38.6668 11.3248C38.6668 15.1011 35.6821 18.1624 32.0002 18.1624H25.3335V4.48718Z" fill="#FF7262"/>
<path d="M38.6668 25C38.6668 28.7763 35.6821 31.8376 32.0002 31.8376C28.3183 31.8376 25.3335 28.7763 25.3335 25C25.3335 21.2237 28.3183 18.1624 32.0002 18.1624C35.6821 18.1624 38.6668 21.2237 38.6668 25Z" fill="#1ABCFE"/>
</svg>
