<?xml version="1.0" encoding="utf-8"?>
<!-- Generator: Adobe Illustrator 28.0.0, SVG Export Plug-In . SVG Version: 6.00 Build 0)  -->
<svg version="1.1" id="Vrstva_1" xmlns="http://www.w3.org/2000/svg" xmlns:xlink="http://www.w3.org/1999/xlink" x="0px" y="0px"
	 viewBox="0 0 21 20" style="enable-background:new 0 0 21 20;" xml:space="preserve">
<style type="text/css">
	.st0{clip-path:url(#SVGID_00000139992610833952990370000006675767848599135382_);}
	.st1{fill:#FFFFFF;}
</style>
<g>
	<defs>
		<path id="SVGID_1_" d="M10.5,0L10.5,0c5.5,0,10,4.5,10,10l0,0c0,5.5-4.5,10-10,10l0,0c-5.5,0-10-4.5-10-10l0,0C0.5,4.5,5,0,10.5,0
			z"/>
	</defs>
	<clipPath id="SVGID_00000143617089749071677190000005950314368794813072_">
		<use xlink:href="#SVGID_1_"  style="overflow:visible;"/>
	</clipPath>
	<g style="clip-path:url(#SVGID_00000143617089749071677190000005950314368794813072_);">
		<path class="st1" d="M19,0H2C1.2,0,0.5,0.6,0.5,1.4v17.1C0.5,19.4,1.2,20,2,20h17c0.8,0,1.5-0.6,1.5-1.4V1.4C20.5,0.6,19.8,0,19,0
			z M6.4,17h-3V7.5h3V17z M4.9,6.2c-1,0-1.7-0.8-1.7-1.7S4,2.8,4.9,2.8c0.9,0,1.7,0.8,1.7,1.7C6.7,5.4,5.9,6.2,4.9,6.2z M17.5,17h-3
			v-4.6c0-1.1,0-2.5-1.5-2.5c-1.5,0-1.8,1.2-1.8,2.5V17h-3V7.5h2.8v1.3h0c0.4-0.8,1.4-1.5,2.8-1.5c3,0,3.6,2,3.6,4.5V17L17.5,17z"/>
	</g>
</g>
</svg>
