<svg width="48" height="48" viewBox="0 0 48 48" fill="none" xmlns="http://www.w3.org/2000/svg">
<rect width="48" height="48" rx="12" fill="#991A6C"/>
<rect x="0.5" y="0.5" width="47" height="47" rx="11.5" stroke="#FFADF8" stroke-opacity="0.3"/>
<g clip-path="url(#clip0_112_1563)">
<path d="M37.9863 19.1199C37.9863 19.0133 37.9863 18.9066 37.973 18.7999C37.7463 12.3999 34.813 9.53325 28.3463 9.35992C28.1197 9.33325 27.893 9.33325 27.6663 9.33325H19.6663C19.4397 9.33325 19.2263 9.33325 19.013 9.35992C12.2397 9.53325 9.33301 12.6533 9.33301 19.6666V27.6666C9.33301 34.6666 12.2263 37.7866 18.9463 37.9733C18.973 37.9866 18.9863 37.9866 19.013 37.9866H19.053C19.253 37.9999 19.453 37.9999 19.6663 37.9999H20.9997C21.5463 37.9999 21.9997 37.5466 21.9997 36.9999C21.9997 36.4533 21.5463 35.9999 20.9997 35.9999H20.013V29.3333H23.6663C24.213 29.3333 24.6663 28.8799 24.6663 28.3333C24.6663 27.7866 24.213 27.3333 23.6663 27.3333H20.013V19.9999H27.3463V23.6533C27.3463 24.1999 27.7997 24.6533 28.3463 24.6533C28.893 24.6533 29.3463 24.1999 29.3463 23.6533V19.9999H35.9997V22.3333C35.9997 22.8799 36.453 23.3333 36.9997 23.3333C37.5463 23.3333 37.9997 22.8799 37.9997 22.3333V19.6666C37.9997 19.4799 37.9997 19.2933 37.9863 19.1199ZM18.013 11.3999V17.9999H11.3997C11.7463 13.6266 13.6397 11.7466 18.013 11.3999ZM18.013 35.9333C13.6397 35.5866 11.7463 33.7066 11.3997 29.3333H18.013V35.9333ZM18.013 27.3333H11.333V19.9999H18.013V27.3333ZM20.013 17.9999V11.3333H27.3463V17.9999H20.013ZM29.3463 17.9999V11.3999C33.693 11.7466 35.5863 13.6399 35.933 17.9999H29.3463Z" fill="white" fill-opacity="0.7"/>
<path d="M37.9993 19C37.9993 19 37.9993 19.08 37.986 19.12C37.986 19.0134 37.986 18.9067 37.9727 18.8C37.986 18.8667 37.9993 18.9334 37.9993 19Z" fill="white" fill-opacity="0.7"/>
<path d="M36.8268 26.5067C35.9601 25.64 35.0401 25.24 34.1201 25.3333C33.3735 25.4133 32.6668 25.7867 31.9468 26.5067L31.2801 27.1867C31.2001 27.2533 31.1201 27.3333 31.0535 27.4133L26.4135 32.04C26.0401 32.4133 25.7335 33.0267 25.6668 33.5333L25.3601 35.6533C25.2535 36.3333 25.4535 36.9867 25.9068 37.4267C26.2801 37.8 26.7868 38 27.3468 38C27.4535 38 27.5735 37.9867 27.6935 37.9733L29.8001 37.6667C30.3201 37.5867 30.9335 37.28 31.2935 36.92L36.8268 31.3867C37.5468 30.6667 37.9335 29.96 38.0001 29.2133C38.0935 28.28 37.6935 27.3733 36.8268 26.5067ZM33.3468 27.9333C33.7201 27.56 34.0401 27.36 34.3068 27.3333H34.3601C34.6535 27.3333 35.0001 27.5333 35.4001 27.9467C35.8268 28.3733 36.0268 28.7333 36.0001 29.04C35.9735 29.3067 35.7735 29.6267 35.4001 30L35.0668 30.3333C34.1468 29.9333 33.4001 29.1867 33.0135 28.2667L33.3468 27.9333ZM29.8668 35.5333C29.8001 35.5867 29.6001 35.6933 29.5068 35.7067L27.3335 35.9467L27.6401 33.8267C27.6535 33.7333 27.7468 33.5333 27.8135 33.4667L31.5335 29.7467C32.0401 30.5867 32.7468 31.2933 33.5868 31.8133L29.8668 35.5333Z" fill="white" fill-opacity="0.7"/>
</g>
<defs>
<clipPath id="clip0_112_1563">
<rect width="28.68" height="28.6667" fill="white" transform="translate(9.33301 9.33325)"/>
</clipPath>
</defs>
</svg>
